<svg width="30" height="30" viewBox="0 0 30 30" fill="none" xmlns="http://www.w3.org/2000/svg">
<g id="Referral Applications">
<rect width="30" height="30" rx="15" fill="white"/>
<g id="Group 16">
<path id="Vector" d="M15.0354 4.31665C18.184 4.31962 20.7368 6.88124 20.7278 10.0304C20.7189 13.1702 18.1644 15.7146 15.0247 15.7116C11.8773 15.7086 9.3246 13.1452 9.33291 9.99721C9.34122 6.85869 11.8957 4.31428 15.0354 4.31665Z" fill="#117AE0"/>
<path id="Vector_2" d="M14.6378 17.136C12.9077 20.3232 13.3386 23.1537 15.9269 25.6833H15.7198C12.9231 25.6833 10.1264 25.6833 7.32979 25.6833C5.96707 25.6833 5.05662 24.7734 5.06018 23.4083C5.06255 22.5044 5.00617 21.5969 5.19075 20.7025C5.73916 18.0441 7.24373 16.1354 9.69377 14.9703C9.7822 14.9281 9.85402 14.8985 9.94661 14.9917C11.2155 16.2683 12.7528 16.971 14.5446 17.1218C14.5808 17.1248 14.617 17.1331 14.6372 17.1366L14.6378 17.136Z" fill="#117AE0"/>
<path id="Vector_3" d="M15.0301 20.7019C15.0348 17.9313 17.276 15.7039 20.0507 15.7122C22.7583 15.7205 25.0065 17.9675 25 20.6597C24.9929 23.4843 22.7755 25.6886 19.948 25.6815C17.2582 25.6744 15.0259 23.4143 15.0307 20.7019H15.0301ZM20.7279 19.9855C20.7279 19.7718 20.7279 19.5944 20.7279 19.4169C20.7279 18.8875 20.4507 18.5581 20.0091 18.5617C19.5758 18.5652 19.304 18.8905 19.3034 19.4062C19.3034 19.5956 19.3034 19.7849 19.3034 19.9855C19.0577 19.9855 18.844 19.9831 18.6298 19.9855C18.1953 19.9908 17.8802 20.2906 17.8796 20.6959C17.8796 21.1001 18.1965 21.4028 18.6286 21.4088C18.8482 21.4117 19.0678 21.4088 19.3034 21.4088C19.3034 21.6272 19.3034 21.8183 19.3034 22.0094C19.3046 22.5026 19.5847 22.829 20.0097 22.832C20.4442 22.8356 20.7267 22.5074 20.7279 21.9987C20.7279 21.8082 20.7279 21.6177 20.7279 21.4082C20.9718 21.4082 21.192 21.4111 21.4128 21.4076C21.8413 21.4005 22.1576 21.0894 22.1517 20.6847C22.1458 20.29 21.8318 19.9908 21.4122 19.9849C21.192 19.9814 20.9712 19.9849 20.7279 19.9849V19.9855Z" fill="#117AE0"/>
</g>
</g>
</svg>
