<svg width="30" height="30" viewBox="0 0 30 30" fill="none" xmlns="http://www.w3.org/2000/svg">
<g id="Dashboard">
<rect width="30" height="30" rx="15" fill="white"/>
<path id="Shape" d="M20.6386 14.2229C21.3905 14.2229 22 14.8323 22 15.5839V20.639C22 21.3907 21.3905 22 20.6386 22H17.1379C16.386 22 15.7765 21.3907 15.7765 20.639V15.5839C15.7765 14.8323 16.386 14.2229 17.1379 14.2229H20.6386ZM12.8733 17.3434C13.6252 17.3434 14.2347 17.9528 14.2347 18.7044V20.639C14.2347 21.3907 13.6252 22 12.8733 22H9.3614C8.60952 22 8 21.3907 8 20.639V18.7044C8 17.9528 8.60952 17.3434 9.3614 17.3434H12.8733ZM12.8621 8C13.614 8 14.2235 8.60933 14.2235 9.36098V14.4161C14.2235 15.1301 13.6734 15.7158 12.9738 15.7725L12.8621 15.777H9.3614C8.60952 15.777 8 15.1677 8 14.4161V9.36098C8 8.60933 8.60952 8 9.3614 8H12.8621ZM20.6386 8C21.3905 8 22 8.60933 22 9.36098V11.3052C22 12.0569 21.3905 12.6662 20.6386 12.6662H17.1379C16.386 12.6662 15.7765 12.0569 15.7765 11.3052V9.36098C15.7765 8.60933 16.386 8 17.1379 8H20.6386Z" fill="#117AE0"/>
</g>
</svg>
