<svg width="30" height="30" viewBox="0 0 30 30" fill="none" xmlns="http://www.w3.org/2000/svg">
<g id="Delet User">
<rect width="30" height="30" rx="15" fill="white"/>
<path id="Vector" d="M17.5372 25H17.2858C13.4663 25 9.6468 25 5.82729 25C5.24341 25 5.00036 24.7488 5.0026 24.1405C5.00595 23.2183 4.96349 22.2937 5.1272 21.3796C5.6295 18.5785 7.08053 16.4735 9.41269 15.0128C12.0896 17.3144 15.756 16.9928 18.0334 15C18.3407 15.2093 18.6564 15.4251 19 15.6594C17.226 16.5433 16.1203 17.9307 15.8102 19.9206C15.5012 21.9047 16.1298 23.5794 17.5372 25Z" fill="#117AE0"/>
<path id="Vector_2" d="M8.00001 10.4903C8.00516 7.45159 10.4799 4.98972 13.52 5.00003C16.5505 5.01034 19.0051 7.47794 19 10.5092C18.9948 13.5484 16.519 16.0108 13.4794 16C10.4501 15.9891 7.99485 13.5203 8.00001 10.4903Z" fill="#117AE0"/>
<path id="Vector_3" d="M21.4881 24.9995C19.5532 24.9946 17.9985 23.4327 18 21.4954C18.0015 19.5634 19.5702 17.9966 21.4998 18C23.44 18.0029 25.0039 19.5741 25 21.5163C24.9961 23.4439 23.4225 25.0044 21.4881 25V24.9995ZM21.4847 22.0801C21.8611 22.0801 22.2375 22.0816 22.6139 22.0801C22.9859 22.0787 23.2487 21.8388 23.2511 21.5017C23.2535 21.1642 22.9903 20.916 22.6226 20.915C21.8762 20.9135 21.1297 20.9131 20.3827 20.915C20.0131 20.916 19.7528 21.1622 19.7547 21.5017C19.7572 21.8383 20.0199 22.0787 20.3919 22.0801C20.7562 22.0816 21.1204 22.0801 21.4847 22.0801Z" fill="#117AE0"/>
</g>
</svg>
