<svg width="50" height="50" viewBox="0 0 50 50" fill="none" xmlns="http://www.w3.org/2000/svg">
<g id="Frame 5">
<g id="Group 7">
<g id="Group">
<path id="Vector" d="M59.1871 50.4767C59.0021 51.019 58.8788 51.5952 58.6199 52.1005C57.6905 53.9138 56.1723 54.9414 54.1409 54.963C49.1333 55.0153 44.1256 55.0076 39.118 54.9676C36.5009 54.946 34.2398 52.8107 34.1396 50.1994C34.0348 47.4879 34.1088 44.7703 34.1042 42.0557C34.1042 41.8847 34.1042 41.7137 34.1042 41.4641H59.1886V50.4782L59.1871 50.4767Z" fill="#042049"/>
<path id="Vector_2" d="M59.1867 37.9961H34.1886C33.6306 35.3077 35.3892 31.3068 40.2859 31.6026C40.2859 30.8199 40.2659 30.0388 40.2921 29.2593C40.3106 28.7247 40.3229 28.1731 40.4585 27.6601C40.9086 25.9423 42.456 24.7407 44.2285 24.7145C45.8453 24.6898 47.4637 24.6852 49.0805 24.7145C51.1335 24.753 52.8305 26.3583 52.963 28.4135C53.0308 29.4626 52.9753 30.521 52.9753 31.5933C53.6319 31.6349 54.2099 31.6241 54.7725 31.7166C57.012 32.0848 58.5841 33.6023 59.0804 35.8208C59.1051 35.9317 59.1513 36.038 59.1867 36.1458V37.9946V37.9961ZM43.7646 31.601H49.5275C49.5275 30.6397 49.5367 29.7184 49.5229 28.7956C49.5167 28.3765 49.2716 28.1731 48.8539 28.1731C47.3728 28.1731 45.89 28.1731 44.4089 28.1731C44.0189 28.1731 43.7769 28.3719 43.7692 28.7632C43.7538 29.7014 43.7646 30.6381 43.7646 31.5995V31.601Z" fill="#042049"/>
</g>
<g id="Group_2">
<path id="Vector_3" d="M0.00154129 41.9247C0.184955 41.062 0.320588 40.1854 0.562571 39.3396C2.24258 33.4637 7.60472 29.3965 13.7221 29.3318C14.7995 29.321 15.8784 29.3302 17.0205 29.3302C17.2054 30.4194 17.3087 31.5148 17.5861 32.564C18.0963 34.482 17.6478 36.3462 17.4073 38.2226C17.0251 41.2007 16.6089 44.1725 16.2036 47.1474C16.1203 47.7637 16.3284 48.269 16.7107 48.7435C18.2458 50.6462 19.7686 52.5611 21.296 54.4715C21.4023 54.604 21.5025 54.7426 21.6859 54.983H20.997C14.7748 54.983 8.55107 54.966 2.32889 54.9999C1.25461 55.0061 0.462387 54.7118 0 53.712C0.00154129 49.7834 0.00154129 45.8548 0.00154129 41.9247Z" fill="#5AE4A7"/>
<path id="Vector_4" d="M22.5536 2.75C28.9438 2.75462 34.1179 7.94957 34.1025 14.3447C34.0856 20.7043 28.9007 25.8669 22.5321 25.8623C16.1434 25.8577 10.9678 20.6612 10.9832 14.2661C10.9986 7.90644 16.1835 2.74538 22.5536 2.75Z" fill="#5AE4A7"/>
<path id="Vector_5" d="M32.3517 54.9629H23.4246C23.5648 54.7734 23.6635 54.6286 23.7714 54.493C25.2618 52.6274 26.7383 50.7524 28.2519 48.9068C28.7805 48.2628 28.9485 47.6096 28.8299 46.7761C28.2611 42.7767 27.7171 38.7742 27.2346 34.7624C27.1514 34.063 27.3995 33.3204 27.5136 32.6025C27.6847 31.5225 27.8727 30.4456 28.0608 29.324C30.1631 29.3733 32.2346 29.1577 34.2367 29.6784C33.594 30.3609 32.9081 30.9848 32.3486 31.7058C31.2019 33.1787 30.6455 34.8872 30.6393 36.7513C30.6255 41.102 30.6301 45.4543 30.6363 49.805C30.6393 51.6676 31.2142 53.3545 32.3502 54.9614L32.3517 54.9629Z" fill="#5AE4A7"/>
<path id="Vector_6" d="M21.1697 36.2921H23.9162C24.2291 38.6184 24.5405 40.9201 24.8503 43.2233C24.9936 44.2894 25.1662 45.354 25.2664 46.4247C25.2957 46.7298 25.2001 47.1149 25.0183 47.3568C24.2368 48.3967 23.403 49.3981 22.5429 50.4704C21.6105 49.3072 20.7211 48.2057 19.8472 47.0903C19.7671 46.9886 19.7609 46.796 19.7794 46.6543C20.2372 43.2079 20.7026 39.7631 21.1697 36.2937V36.2921Z" fill="#5AE4A7"/>
<path id="Vector_7" d="M21.1173 32.7612C20.9277 31.618 20.7427 30.5073 20.5516 29.3595H24.5343C24.3432 30.5088 24.1567 31.6211 23.9671 32.7612H21.1173Z" fill="#5AE4A7"/>
</g>
</g>
</g>
</svg>
