<svg width="50" height="50" viewBox="0 0 50 50" fill="none" xmlns="http://www.w3.org/2000/svg">
<path d="M24.7198 37.7612C19.1409 37.7612 13.5521 37.7612 7.97318 37.7612C5.62002 37.7612 3.84534 36.2513 3.47276 33.9373C3.43354 33.6628 3.42374 33.3882 3.42374 33.1137C3.42374 25.917 3.42374 18.7104 3.42374 11.5137C3.42374 8.7487 5.30626 6.86617 8.06142 6.86617C10.1302 6.86617 12.1893 6.86617 14.2581 6.86617C15.2386 6.86617 15.9053 7.46426 15.9053 8.32709C15.9053 9.19972 15.2386 9.80762 14.2679 9.80762C12.1893 9.80762 10.1106 9.80762 8.03201 9.80762C6.93387 9.80762 6.36519 10.3763 6.36519 11.4744C6.36519 18.6908 6.36519 25.9072 6.36519 33.1235C6.36519 34.2413 6.93387 34.8099 8.06142 34.8099C19.1605 34.8099 30.2694 34.8099 41.3684 34.8099C42.496 34.8099 43.0647 34.2413 43.0647 33.1235C43.0647 25.9072 43.0647 18.6908 43.0647 11.4744C43.0647 10.3861 42.4862 9.80762 41.3979 9.80762C39.2898 9.80762 37.1818 9.80762 35.0639 9.80762C33.9658 9.80762 33.2598 8.81733 33.6128 7.83685C33.8187 7.26817 34.3286 6.87597 34.9365 6.87597C37.2504 6.87597 39.5546 6.82695 41.8587 6.89558C44.0844 6.95441 45.9179 8.86635 45.9865 11.1019C46.0159 12.1118 45.9865 13.1217 45.9963 14.1315C45.9963 20.4851 45.9963 26.8484 45.9963 33.202C45.9963 35.3492 44.7217 37.0651 42.7215 37.5945C42.2705 37.7122 41.7901 37.7514 41.3194 37.7514C35.7797 37.7612 30.2498 37.7514 24.71 37.7514L24.7198 37.7612Z" fill="#5AE4A7"/>
<path d="M27.1906 16.6514C27.4848 17.1417 27.9064 17.3868 28.3966 17.5437C31.6028 18.5928 34.0344 20.544 35.4757 23.6423C36.1327 25.064 36.4464 26.5739 36.4562 28.1427C36.466 29.8291 35.1914 31.1136 33.5148 31.143C32.8382 31.143 32.1715 31.143 31.495 31.143C30.5733 31.1332 30.034 30.437 30.2498 29.535C30.4262 28.8094 30.6223 28.0839 30.789 27.3485C31.0341 26.2406 30.2792 25.2699 29.1418 25.2601C26.1905 25.2503 23.2393 25.2503 20.288 25.2601C19.1311 25.2601 18.3761 26.2406 18.6408 27.3779C18.7977 28.0643 18.9742 28.7408 19.1409 29.4271C19.3958 30.4468 18.8761 31.1234 17.8466 31.1332C17.2093 31.1332 16.5622 31.1332 15.9249 31.1332C14.2483 31.1136 12.9736 29.8193 12.9736 28.1427C12.9736 23.3481 16.1112 19.1223 20.8077 17.6123C21.3764 17.426 21.9254 17.2201 22.2294 16.6416C19.2585 14.5728 18.2486 12.2393 19.1213 9.48411C19.8958 7.0329 22.1902 5.37589 24.7688 5.3955C27.3279 5.41511 29.5536 7.11134 30.3282 9.56255C30.9851 11.6608 30.4655 14.9258 27.1906 16.6514Z" fill="#042049"/>
<path d="M24.71 45.1149C22.4059 45.1149 20.092 45.1149 17.7878 45.1149C17.3564 45.1149 17.0034 44.9972 16.7779 44.6148C16.4936 44.1246 16.6701 43.5363 17.2093 43.3794C18.2585 43.0657 18.935 42.4087 19.3076 41.3792C19.4644 40.938 19.837 40.7027 20.3077 40.7027C23.2589 40.7027 26.2102 40.7027 29.1516 40.7027C29.6615 40.7027 30.0145 40.9968 30.1811 41.4675C30.5145 42.4185 31.1616 43.0264 32.1127 43.3304C32.6029 43.4873 32.8284 43.8206 32.7794 44.2324C32.7304 44.6835 32.3676 45.0364 31.897 45.0953C31.7597 45.1149 31.6224 45.0953 31.4852 45.0953C29.2203 45.0953 26.9651 45.0953 24.7002 45.0953L24.71 45.1149Z" fill="#5AE4A7"/>
<path d="M12.2383 12.0137C12.954 12.0137 13.6796 12.0137 14.3953 12.0137C15.2582 12.0235 15.9053 12.651 15.9053 13.4747C15.9053 14.2885 15.268 14.9454 14.415 14.9552C12.9638 14.965 11.5127 14.965 10.0616 14.9552C9.20859 14.9552 8.56147 14.2885 8.57128 13.4747C8.57128 12.651 9.2184 12.0333 10.0812 12.0235C10.797 12.0235 11.5225 12.0235 12.2383 12.0235V12.0137Z" fill="#042049"/>
<path d="M10.395 19.4066C10.1106 19.3674 9.81648 19.3576 9.54195 19.2694C8.88502 19.0537 8.49283 18.3967 8.57127 17.7202C8.64971 17.0339 9.21839 16.4848 9.91453 16.4358C10.1891 16.4162 10.4636 16.426 10.7381 16.4358C11.5912 16.4554 12.2285 17.1025 12.2285 17.9163C12.2285 18.7203 11.5912 19.3478 10.7577 19.3674C10.6401 19.3674 10.5126 19.3674 10.395 19.3674C10.395 19.3772 10.395 19.387 10.395 19.4066Z" fill="#042049"/>
<path d="M24.71 30.3978C23.9158 30.3978 23.2491 29.7311 23.2491 28.9271C23.2491 28.1035 23.9256 27.4367 24.7493 27.4564C25.5434 27.476 26.2004 28.1427 26.1906 28.9467C26.1906 29.7409 25.514 30.3978 24.7198 30.3978H24.71Z" fill="#042049"/>
</svg>
