<svg width="50" height="50" viewBox="0 0 50 50" fill="none" xmlns="http://www.w3.org/2000/svg">
<path d="M32.7661 10.791C31.8357 11.0205 31.1442 11.5085 30.7028 12.3354C30.6645 12.4057 30.4991 12.4481 30.3988 12.4398C29.9171 12.3985 29.4364 12.3344 28.8865 12.2703C28.8865 12.2114 28.8865 12.0646 28.8865 11.9178C28.8865 10.6949 28.7376 10.5481 27.4982 10.5481C26.2205 10.5481 24.9439 10.5481 23.6662 10.5481C19.3059 10.5481 14.9447 10.5481 10.5844 10.5481C9.73676 10.5481 9.46592 10.8159 9.46489 11.649C9.46489 12.5515 9.46179 13.455 9.46489 14.3574C9.46799 15.051 9.7595 15.3405 10.4593 15.3405C15.7107 15.3415 20.9609 15.3446 26.2123 15.3332C26.5617 15.3332 26.6506 15.4335 26.7591 15.7695C26.9214 16.2688 27.2119 16.7401 27.5168 17.1743C27.7329 17.4823 28.0637 17.7098 28.2983 17.931C27.9355 18.3455 27.6243 18.7176 27.2904 19.0681C27.2108 19.1518 27.0516 19.1942 26.9286 19.1963C26.1027 19.2076 25.2778 19.2004 24.4518 19.2025C23.8254 19.2045 23.5204 19.495 23.5008 20.1121C23.4925 20.3954 23.4915 20.6797 23.5008 20.9629C23.5215 21.5676 23.8099 21.854 24.4229 21.8633C25.1062 21.8736 25.7936 21.9046 26.4738 21.855C27.0609 21.8126 27.5023 21.946 27.7494 22.5693C27.3359 23.0459 26.8335 23.5224 26.4583 24.0827C26.0179 24.7422 25.469 24.9841 24.7082 24.8714C24.5097 24.8414 24.2937 24.8683 24.0962 24.9148C23.7634 24.9934 23.5484 25.2249 23.5246 25.5661C23.4956 25.9889 23.4843 26.4189 23.5277 26.8386C23.5494 27.0505 23.7086 27.249 23.8223 27.4909C22.8547 28.9091 21.9812 30.4308 21.4995 32.1654C21.4995 31.9111 21.5109 31.6568 21.4974 31.4035C21.4685 30.8618 21.1842 30.561 20.6467 30.5517C19.6667 30.5362 18.6857 30.5352 17.7057 30.5517C17.1599 30.561 16.8808 30.8598 16.8643 31.4035C16.854 31.7519 16.8509 32.1002 16.8705 32.4476C16.8963 32.89 17.2002 33.1981 17.6448 33.2043C18.664 33.2187 19.6843 33.2301 20.7015 33.1939C20.9547 33.1846 21.2018 32.9934 21.4416 32.889C21.1346 34.6732 21.3414 36.4688 22.0588 38.2581C21.8748 38.2581 21.7497 38.2581 21.6246 38.2581C17.5093 38.2581 13.393 38.2623 9.27779 38.2561C7.33025 38.253 5.92232 37.0776 5.62047 35.218C5.58532 35.0029 5.58429 34.7817 5.58429 34.5626C5.58636 26.1026 5.58636 17.6415 5.58739 9.17947C5.58842 7.02002 7.10283 5.50562 9.26538 5.50458C15.8709 5.50148 22.4764 5.50251 29.0819 5.50458C31.2558 5.50458 32.7557 7.00141 32.7661 9.17017C32.7681 9.6984 32.7661 10.2266 32.7661 10.7921V10.791ZM12.5216 27.5457C13.0106 27.5457 13.5006 27.556 13.9895 27.5426C14.5146 27.5281 14.833 27.2211 14.8578 26.7032C14.8744 26.3693 14.8744 26.0333 14.8578 25.6994C14.831 25.1981 14.5219 24.8797 14.0184 24.8724C13.0271 24.8569 12.0358 24.8559 11.0444 24.8724C10.5389 24.8817 10.2392 25.2084 10.2236 25.7087C10.2143 26.0178 10.2164 26.3269 10.2216 26.6349C10.2309 27.2273 10.5338 27.5332 11.1313 27.5436C11.5944 27.5519 12.0585 27.5457 12.5216 27.5446V27.5457ZM19.1674 27.5457C19.6564 27.5457 20.1464 27.556 20.6343 27.5426C21.1625 27.5281 21.4706 27.2283 21.4985 26.7021C21.516 26.3682 21.5171 26.0323 21.4974 25.6984C21.4685 25.1908 21.1656 24.8797 20.6601 24.8714C19.6698 24.8559 18.6774 24.8549 17.6871 24.8714C17.1837 24.8807 16.887 25.2032 16.8674 25.7098C16.856 26.0178 16.8581 26.3279 16.8653 26.636C16.8788 27.2335 17.1775 27.5332 17.776 27.5436C18.2391 27.5519 18.7023 27.5457 19.1664 27.5436L19.1674 27.5457ZM12.5506 19.2025C12.074 19.2025 11.5985 19.1983 11.122 19.2025C10.5265 19.2087 10.2298 19.5095 10.2216 20.1121C10.2174 20.4078 10.2154 20.7045 10.2216 21.0001C10.234 21.5397 10.5152 21.8498 11.0527 21.8581C12.043 21.8746 13.0354 21.8736 14.0257 21.8581C14.5312 21.8498 14.833 21.5366 14.8578 21.0301C14.8744 20.6962 14.8754 20.3602 14.8578 20.0263C14.8299 19.5084 14.5064 19.2097 13.9802 19.2025C13.5037 19.1952 13.0281 19.2014 12.5516 19.2014L12.5506 19.2025ZM12.5154 33.2125C13.0178 33.2125 13.5192 33.2218 14.0215 33.2094C14.5033 33.1981 14.8227 32.9003 14.8537 32.4207C14.8775 32.062 14.8754 31.6992 14.8537 31.3405C14.8258 30.8877 14.5384 30.5724 14.0991 30.5631C13.0571 30.5424 12.0141 30.5414 10.9721 30.5631C10.5203 30.5724 10.2443 30.8877 10.2257 31.3384C10.2123 31.6723 10.2154 32.0072 10.2226 32.3421C10.234 32.891 10.54 33.2012 11.0868 33.2105C11.5634 33.2187 12.0389 33.2125 12.5154 33.2105V33.2125ZM19.185 21.8664C19.185 21.8664 19.185 21.8643 19.185 21.8622C19.6864 21.8622 20.1887 21.8767 20.6901 21.8581C21.1553 21.8405 21.4499 21.5759 21.485 21.1252C21.516 20.7293 21.516 20.3272 21.483 19.9312C21.4458 19.4857 21.1305 19.2107 20.6798 19.2056C19.676 19.1963 18.6723 19.1952 17.6685 19.2056C17.2054 19.2107 16.8974 19.5167 16.8726 19.9778C16.854 20.3116 16.8581 20.6466 16.8664 20.9805C16.8808 21.5635 17.1641 21.8478 17.7564 21.8622C18.2319 21.8736 18.7085 21.8643 19.185 21.8643V21.8664Z" fill="#5AE4A7"/>
<path d="M33.2653 43.893C30.2303 43.8805 27.5199 42.9874 25.3201 40.8393C22.1838 37.7764 21.6732 33.4999 23.9287 29.6513C25.2726 27.3575 26.9638 25.3293 28.7335 23.3601C28.8141 23.2712 28.993 23.234 29.1253 23.235C29.4199 23.236 29.7145 23.297 30.0091 23.2981C32.1892 23.3043 34.3694 23.3012 36.5495 23.3012C36.717 23.3012 36.901 23.3373 37.0498 23.2826C37.5398 23.0996 37.8117 23.3435 38.1125 23.6909C39.7375 25.5619 41.3274 27.4609 42.573 29.6151C44.2094 32.4455 44.5371 35.3771 43.0382 38.3605C41.7739 40.8776 39.6775 42.453 37.0374 43.3337C35.8166 43.741 34.5534 43.9064 33.2664 43.894L33.2653 43.893ZM31.4997 30.8701C31.4946 30.3832 31.7365 30.04 32.1355 29.794C33.1589 29.1624 34.4841 29.5221 35.0547 30.5837C35.3018 31.0427 35.676 31.2061 36.0605 31.022C36.4523 30.8349 36.5609 30.4059 36.3303 29.9294C35.921 29.0838 35.2687 28.506 34.3673 28.2465C34.0355 28.1514 33.9228 28.0108 33.9373 27.6635C33.959 27.1466 33.6571 26.8468 33.2137 26.8582C32.7898 26.8685 32.4994 27.1725 32.5304 27.6645C32.5531 28.0325 32.4394 28.2114 32.0755 28.2589C31.9401 28.2765 31.8078 28.3499 31.6817 28.4129C30.65 28.9319 30.0443 29.7423 30.0629 30.9238C30.0815 32.093 30.74 32.8445 31.7778 33.2652C32.2502 33.4565 32.7723 33.5237 33.2602 33.6808C33.7698 33.8441 34.3218 33.9661 34.758 34.2524C35.5189 34.7528 35.4176 35.7999 34.5771 36.1369C34.0696 36.3406 33.4783 36.4419 32.9325 36.4191C32.1448 36.386 31.5028 36.0087 31.2144 35.2004C31.0263 34.6721 30.6955 34.4633 30.2655 34.6008C29.8479 34.7342 29.6876 35.1352 29.8592 35.6521C30.2117 36.7148 30.9622 37.3836 32.0145 37.6854C32.4022 37.7971 32.6048 37.9315 32.5211 38.3491C32.5118 38.3977 32.5211 38.4525 32.5293 38.5031C32.5893 38.8484 32.888 39.0965 33.2374 39.0944C33.592 39.0923 33.8752 38.8484 33.93 38.4917C33.9455 38.3904 33.9559 38.285 33.9445 38.1837C33.9176 37.9366 34.0055 37.8302 34.2629 37.7661C34.634 37.6751 35.0092 37.549 35.3431 37.366C37.0219 36.4439 37.1646 34.2462 35.6326 33.0864C35.0309 32.6305 34.3259 32.4393 33.6044 32.278C33.1289 32.1715 32.6503 32.0568 32.1975 31.8821C31.7623 31.7136 31.4884 31.3745 31.4977 30.8691L31.4997 30.8701Z" fill="#042049"/>
<path d="M33.2436 17.6601C32.1861 17.6601 31.1286 17.6715 30.0722 17.6498C29.8799 17.6457 29.6525 17.5495 29.5067 17.4213C29.1201 17.0813 28.7645 16.706 28.4068 16.3349C27.8093 15.7136 27.7473 14.8412 28.2425 14.1848C28.7252 13.5459 29.577 13.3702 30.3254 13.7547C31.0242 14.1134 31.4543 13.9294 31.7044 13.1676C31.937 12.4584 32.5479 12.0026 33.2643 12.0026C33.9796 12.0026 34.5926 12.4615 34.8232 13.1696C35.0713 13.9294 35.4992 14.1103 36.2032 13.7527C36.9495 13.3722 37.8086 13.5511 38.2872 14.1868C38.773 14.8329 38.7234 15.6919 38.1445 16.3091C37.7569 16.7225 37.3558 17.1247 36.9382 17.5092C36.8327 17.6064 36.6436 17.6529 36.4926 17.655C35.4093 17.6674 34.3259 17.6612 33.2436 17.6612V17.6601Z" fill="#042049"/>
<path d="M33.2695 22.0628C32.1355 22.0628 31.0004 22.0659 29.8665 22.0628C28.8751 22.0597 28.1753 21.4115 28.168 20.4967C28.1598 19.5642 28.8648 18.9006 29.8737 18.8996C32.1293 18.8975 34.3849 18.8975 36.6415 18.8996C37.6535 18.8996 38.3647 19.5591 38.3626 20.4843C38.3606 21.4105 37.6504 22.0607 36.6342 22.0628C35.5127 22.0648 34.3911 22.0628 33.2695 22.0628Z" fill="#042049"/>
</svg>
