<svg width="50" height="50" viewBox="0 0 50 50" fill="none" xmlns="http://www.w3.org/2000/svg">
<path d="M5 37.6274C5.12939 36.8604 5.22566 36.0861 5.39439 35.3283C6.64382 29.7336 11.4107 25.2449 17.1268 24.2453C20.0843 23.7282 22.9434 24.0221 25.7083 25.1896C25.7786 25.2193 25.848 25.2541 25.9443 25.2991C25.8584 25.3473 25.7962 25.3882 25.73 25.4179C25.023 25.7344 24.4837 26.229 24.0986 26.8937C23.668 27.6372 23.228 28.3746 22.8015 29.1201C21.8544 30.773 22.2167 32.599 23.7684 33.7153C24.5458 34.2745 24.5789 34.5008 23.7622 35.0927C22.2032 36.2223 21.8523 38.035 22.8057 39.6859C23.2291 40.4181 23.6545 41.1493 24.0851 41.8775C25.0468 43.5038 26.8034 44.0855 28.558 43.3624C28.7133 43.299 28.8655 43.2293 29.0207 43.1658C29.3913 43.0132 29.6377 43.1545 29.7071 43.5376C29.7961 44.0261 29.9017 44.5125 30 45H6.708C5.83019 44.7429 5.25879 44.1817 5 43.3112C5 41.4166 5 39.522 5 37.6274Z" fill="#042049"/>
<path d="M33.2871 44.9979C32.6524 44.7045 32.3626 44.1912 32.3269 43.4748C32.3024 42.9721 32.2269 42.4715 32.1442 41.9752C32.1238 41.8508 32.0095 41.7105 31.9013 41.6415C31.338 41.2822 30.7656 40.9357 30.187 40.6041C30.0757 40.5404 29.8992 40.5085 29.788 40.5531C29.2543 40.7678 28.7338 41.0218 28.2042 41.2482C27.4889 41.5543 26.895 41.3534 26.5031 40.6626C26.0623 39.8857 25.6286 39.1045 25.2051 38.318C24.8387 37.6378 24.9673 36.9979 25.5581 36.5186C26 36.1594 26.4643 35.8288 26.897 35.4579C27.0072 35.3633 27.0868 35.1656 27.0909 35.0115C27.1092 34.3759 27.0623 33.7372 27.1041 33.1037C27.1246 32.7923 27.046 32.6233 26.8103 32.4554C26.3888 32.1568 25.9867 31.8294 25.5837 31.5042C24.9571 30.9993 24.8357 30.368 25.2275 29.6442C25.6408 28.8822 26.0602 28.1222 26.4857 27.3676C26.8878 26.6555 27.4797 26.4504 28.2134 26.7629C28.7318 26.984 29.24 27.2327 29.7635 27.4378C29.8859 27.4856 30.0768 27.4548 30.1972 27.3868C30.7666 27.0647 31.3268 26.7246 31.8789 26.3707C31.9973 26.2952 32.1238 26.1443 32.1452 26.0115C32.2391 25.4227 32.2973 24.8275 32.3677 24.2355C32.4575 23.4819 32.9453 23.0132 33.678 23.0058C34.5321 22.9962 35.3872 23.0005 36.2414 23.0047C37.071 23.0079 37.5476 23.4554 37.6425 24.3109C37.7027 24.8519 37.767 25.3918 37.817 25.9328C37.8384 26.1666 37.9313 26.2921 38.1435 26.4068C38.7068 26.7108 39.2415 27.0722 39.7997 27.3889C39.9212 27.458 40.111 27.4909 40.2344 27.442C40.7579 27.2358 41.2661 26.9871 41.7835 26.7639C42.5172 26.4483 43.1081 26.6502 43.5091 27.3676C44.0142 28.271 44.503 29.184 44.999 30.0927V30.7304C44.6959 31.0748 44.4143 31.4436 44.0846 31.7561C43.7652 32.0579 43.3866 32.2907 43.055 32.5798C42.9601 32.6627 42.8948 32.8359 42.8938 32.9688C42.8897 33.5384 42.9856 34.1187 42.9081 34.6746C42.8366 35.1837 43.0162 35.4281 43.3754 35.7034C43.9693 36.1594 44.6704 36.509 45 37.2679V37.9056C44.5112 38.8016 44.0275 39.7007 43.5316 40.5935C43.1009 41.3694 42.5264 41.5617 41.7223 41.2121C41.3702 41.059 40.9998 40.9389 40.6732 40.7391C40.2079 40.4553 39.812 40.4553 39.4293 40.873C39.3436 40.9666 39.2191 41.0208 39.1109 41.0909C38.6905 41.3609 38.1231 41.5352 37.8894 41.9263C37.6455 42.3355 37.6914 42.9509 37.668 43.4791C37.6343 44.222 37.3292 44.7343 36.6567 45H33.2892L33.2871 44.9979ZM37.969 34.022C37.9792 32.2949 36.6567 30.8962 35.0076 30.8899C33.3667 30.8835 32.0095 32.2864 32.0054 33.9933C32.0013 35.6811 33.3412 37.0915 34.9607 37.1053C36.6159 37.1202 37.9588 35.7438 37.969 34.022Z" fill="#5AE4A7"/>
<path d="M20.7579 5C21.2272 5.09962 21.7025 5.17585 22.1647 5.30393C25.7887 6.30824 28.2314 9.76028 27.9826 13.5091C27.7307 17.2905 24.8664 20.3888 21.1307 20.9194C16.7876 21.5364 12.7837 18.5449 12.0941 14.1668C11.4328 9.97069 14.3296 5.90977 18.5315 5.14129C18.7662 5.09758 18.9998 5.04676 19.2344 5C19.7422 5 20.2501 5 20.7579 5Z" fill="#042049"/>
</svg>
