<svg width="30" height="30" viewBox="0 0 30 30" fill="none" xmlns="http://www.w3.org/2000/svg">
<g id="Referral Applications">
<rect width="30" height="30" rx="15" fill="white"/>
<g id="Group 18">
<path id="Vector" d="M15.6174 6.39819C13.7649 9.10125 14.6754 12.187 16.3142 13.7052C17.3797 14.6926 18.6333 15.2251 20.0827 15.2519C21.5204 15.2786 22.7875 14.7922 23.9083 13.8368C23.913 13.9347 23.9171 13.99 23.9177 14.0454C23.9177 15.662 23.9212 17.2791 23.9165 18.8957C23.9142 19.8494 23.3619 20.5799 22.4822 20.7896C22.2935 20.8345 22.0931 20.8473 21.8979 20.8485C20.7544 20.8537 19.6108 20.8589 18.4673 20.8467C18.0409 20.842 17.7344 21.0028 17.4909 21.35C16.9305 22.1481 16.3532 22.9346 15.7823 23.7257C15.1199 24.6438 14.0638 24.6584 13.3694 23.7589C12.7419 22.9468 12.1075 22.1388 11.4894 21.3197C11.2395 20.9883 10.9319 20.842 10.5172 20.8473C9.43944 20.8601 8.36113 20.8519 7.28341 20.8514C6.04373 20.8502 5.26602 20.0719 5.26602 18.8322C5.26602 15.3585 5.26602 11.8841 5.26602 8.41034C5.26602 7.17066 6.04198 6.39819 7.28632 6.39819C9.98122 6.39819 12.6767 6.39819 15.3716 6.39819H15.6174Z" fill="#117AE0"/>
<path id="Vector_2" d="M15.5289 9.67168C15.5067 7.13582 17.5841 5.02231 20.1194 5.00018C22.717 4.97804 24.8264 7.04319 24.8462 9.62799C24.8661 12.1837 22.7927 14.2989 20.2505 14.3158C17.6272 14.3333 15.5516 12.292 15.5289 9.6711V9.67168ZM19.7221 8.72736C19.7221 9.01805 19.7017 9.31108 19.7303 9.59944C19.7454 9.75265 19.8147 9.92509 19.9155 10.0399C20.1689 10.3294 20.4532 10.5915 20.727 10.863C20.9694 11.1024 21.2344 11.1246 21.4395 10.9253C21.6393 10.7313 21.623 10.4471 21.3935 10.2129C21.1849 9.99966 20.9659 9.79634 20.7649 9.57672C20.7043 9.51031 20.6577 9.4037 20.6559 9.31457C20.6455 8.81998 20.6542 8.3254 20.6495 7.83081C20.6466 7.53545 20.4491 7.32981 20.1847 7.33039C19.9208 7.33039 19.7291 7.53429 19.7238 7.83255C19.7186 8.13082 19.7227 8.42909 19.7227 8.72736H19.7221Z" fill="#117AE0"/>
</g>
</g>
</svg>
