<svg width="252" height="67" viewBox="0 0 252 67" fill="none" xmlns="http://www.w3.org/2000/svg">
<g id="Logo" clip-path="url(#clip0_67_1758)">
<path id="Vector" fill-rule="evenodd" clip-rule="evenodd" d="M67.9572 25.5066C67.9572 26.3358 67.9086 27.1543 67.8169 27.9566C67.7198 28.7589 67.5903 29.5935 67.423 30.4442L63.3979 50.4102C63.3494 50.5986 63.2738 50.7602 63.1659 50.8894C63.058 51.0186 62.88 51.1317 62.6318 51.2286C62.3836 51.3201 62.0652 51.3955 61.6876 51.444C61.3099 51.4925 60.8189 51.514 60.2307 51.514C59.6426 51.514 59.1948 51.4925 58.8225 51.444C58.4556 51.3955 58.1696 51.3255 57.97 51.2286C57.7704 51.1317 57.6409 51.024 57.5815 50.8894C57.5222 50.7602 57.506 50.5986 57.5276 50.4102L61.4771 30.6596C61.6444 29.9273 61.7577 29.2166 61.817 28.5273C61.8764 27.8381 61.9034 27.235 61.9034 26.7181C61.9034 25.2751 61.5958 24.1066 60.9807 23.2182C60.3656 22.3297 59.3297 21.8882 57.8837 21.8882C56.6265 21.8882 55.337 22.2489 54.0205 22.9705C52.7039 23.692 51.4791 24.6881 50.3515 25.9535C49.2238 27.2189 48.2148 28.7266 47.3245 30.4658C46.4343 32.205 45.7868 34.095 45.3821 36.1303L42.5333 50.4102C42.4847 50.5986 42.4038 50.7602 42.2851 50.8894C42.1664 51.0186 41.9883 51.1317 41.7509 51.2286C41.5135 51.3201 41.2006 51.3955 40.8067 51.444C40.4182 51.4925 39.9326 51.514 39.3661 51.514C38.7995 51.514 38.2924 51.4925 37.9255 51.444C37.5586 51.3955 37.2726 51.3255 37.073 51.2286C36.8733 51.1317 36.7384 51.024 36.6791 50.8894C36.6197 50.7602 36.6143 50.5986 36.6629 50.4102L43.1052 18.4044C43.1268 18.2374 43.1915 18.0867 43.2995 17.9413C43.4074 17.8013 43.5692 17.6828 43.7958 17.5859C44.0225 17.489 44.3084 17.4244 44.6483 17.3921C44.9937 17.3598 45.4037 17.3382 45.8785 17.3382C46.3533 17.3382 46.785 17.3544 47.1087 17.3921C47.4271 17.4298 47.6753 17.4944 47.8533 17.5859C48.0314 17.6775 48.1447 17.7959 48.1932 17.9413C48.2418 18.0813 48.2526 18.2374 48.231 18.4044L47.0224 24.5158C47.3785 23.7082 47.9612 22.8574 48.7652 21.9582C49.5691 21.059 50.5295 20.2297 51.6464 19.4705C52.7633 18.7113 53.9881 18.0867 55.3316 17.5859C56.6697 17.0905 58.0671 16.8375 59.5131 16.8375C61.1048 16.8375 62.4321 17.0798 63.5005 17.5644C64.5688 18.049 65.4375 18.6897 66.1011 19.4813C66.7648 20.2728 67.2396 21.1936 67.5256 22.2328C67.8115 23.2774 67.9518 24.3651 67.9518 25.5012M100.919 3.87684C100.919 3.63992 100.886 3.41377 100.811 3.20377C100.741 2.98839 100.633 2.82685 100.492 2.70839C100.352 2.56839 100.093 2.42301 99.7263 2.28301C99.3594 2.14301 98.9332 2.01917 98.4422 1.91148C97.9566 1.80379 97.4278 1.72302 96.8613 1.66379C96.2893 1.60456 95.7444 1.57764 95.221 1.57764C93.6293 1.57764 92.1779 1.80917 90.8614 2.26686C89.5449 2.72993 88.3794 3.43531 87.3759 4.38299C86.3669 5.33067 85.509 6.53143 84.7968 7.99064C84.0846 9.44447 83.5396 11.146 83.1619 13.0898L82.2716 17.5321H77.7879C77.5505 17.5321 77.3563 17.5967 77.1998 17.7259C77.0433 17.8551 76.8977 18.0274 76.752 18.2428C76.6117 18.4582 76.493 18.6951 76.3959 18.9536C76.2987 19.2174 76.2232 19.4867 76.1639 19.772C76.1045 20.0574 76.0613 20.332 76.0398 20.6066C76.0182 20.8813 76.002 21.1128 76.002 21.3013C76.002 21.7266 76.0667 22.0174 76.1962 22.1736C76.3257 22.3297 76.5092 22.4051 76.7466 22.4051H81.3004L75.4624 51.4601C75.1765 52.8601 74.8635 54.0555 74.5182 55.0463C74.1729 56.0424 73.7466 56.8608 73.2341 57.5178C72.7215 58.1693 72.1064 58.6485 71.3834 58.9554C70.6604 59.2624 69.8025 59.4185 68.8043 59.4185C68.4266 59.4185 68.1083 59.4024 67.8601 59.3647C67.6119 59.327 67.3961 59.2947 67.218 59.257C67.04 59.2247 66.8727 59.187 66.7216 59.1493C66.5651 59.1116 66.4087 59.0954 66.2414 59.0954C66.0741 59.0954 65.9339 59.1654 65.8152 59.3054C65.6965 59.4508 65.5885 59.6393 65.4968 59.8762C65.4051 60.1131 65.3188 60.3662 65.2486 60.6408C65.1785 60.91 65.1191 61.1739 65.0706 61.4216C65.022 61.6693 64.9788 61.9062 64.9465 62.1323C64.9087 62.3585 64.8925 62.5146 64.8925 62.6116C64.8925 62.8485 64.9141 63.0369 64.9627 63.1823C65.0112 63.3223 65.0814 63.4515 65.1785 63.5754C65.3457 63.7154 65.7666 63.8715 66.441 64.0385C67.1155 64.2054 67.9896 64.2861 69.0579 64.2861C70.6981 64.2861 72.1657 64.0546 73.4715 63.5915C74.7772 63.1285 75.9265 62.4177 76.9246 61.4593C77.9228 60.5008 78.7645 59.2947 79.4498 57.8355C80.135 56.3816 80.6853 54.6586 81.0846 52.6663L87.1708 22.3997H94.3631C94.5304 22.3997 94.6976 22.3405 94.8595 22.222C95.0268 22.1036 95.1724 21.9474 95.3019 21.7589C95.4314 21.5705 95.5501 21.3497 95.658 21.102C95.766 20.8543 95.8523 20.5905 95.9278 20.3213C95.998 20.0467 96.0573 19.772 96.1059 19.4867C96.1544 19.2013 96.176 18.9321 96.176 18.6682C96.176 18.2644 96.1005 17.9736 95.944 17.7959C95.7875 17.6182 95.5825 17.5267 95.3235 17.5267H88.169L88.7733 14.3283C89.0323 12.9767 89.3452 11.8083 89.7013 10.8121C90.0574 9.816 90.4945 8.99755 91.0179 8.34602C91.5412 7.69449 92.1617 7.21526 92.8847 6.90834C93.6077 6.60143 94.4818 6.44527 95.5016 6.44527C96.0465 6.44527 96.5429 6.49373 96.9961 6.58527C97.444 6.68219 97.8379 6.77912 98.1724 6.88681C98.5069 6.9945 98.7929 7.0968 99.0465 7.18834C99.2947 7.28526 99.5051 7.32834 99.667 7.32834C99.8072 7.32834 99.9367 7.25834 100.061 7.11296C100.18 6.97296 100.287 6.77912 100.379 6.54219C100.476 6.30527 100.557 6.0522 100.627 5.77759C100.698 5.50298 100.751 5.24452 100.789 4.99683C100.827 4.74914 100.854 4.52299 100.881 4.32376C100.903 4.12453 100.913 3.97376 100.913 3.88223M125.862 24.9843C125.862 24.0366 125.663 23.0835 125.258 22.1251C124.853 21.1666 124.206 20.2943 123.316 19.5136C122.425 18.7328 121.287 18.0921 119.9 17.5967C118.514 17.1013 116.819 16.8482 114.828 16.8482C112.503 16.8482 110.415 17.2144 108.564 17.9467C106.714 18.679 105.084 19.6536 103.67 20.8597C102.257 22.0659 101.043 23.4658 100.023 25.0489C99.0033 26.6374 98.1724 28.2958 97.5303 30.0242C96.8882 31.7527 96.4188 33.5027 96.1221 35.2634C95.8253 37.0295 95.6796 38.6772 95.6796 40.2172C95.6796 42.2041 95.9386 43.9379 96.462 45.4025C96.9854 46.8725 97.7731 48.0948 98.8306 49.0802C99.8882 50.0655 101.21 50.7925 102.802 51.2663C104.393 51.7401 106.244 51.9771 108.354 51.9771C109.541 51.9771 110.728 51.9071 111.915 51.7617C113.102 51.6217 114.192 51.4332 115.19 51.2125C116.188 50.9863 117.046 50.7386 117.769 50.464C118.492 50.1894 118.999 49.9148 119.28 49.6294C119.469 49.414 119.641 49.1556 119.798 48.8486C119.954 48.5417 120.078 48.2133 120.17 47.8686C120.267 47.524 120.337 47.1902 120.386 46.8563C120.434 46.5225 120.456 46.2425 120.456 46.0056C120.456 45.7202 120.402 45.5048 120.294 45.3487C120.186 45.1925 120.024 45.1171 119.814 45.1171C119.604 45.1171 119.21 45.2302 118.638 45.4564C118.066 45.6825 117.337 45.9248 116.447 46.1833C115.557 46.4417 114.505 46.6894 113.296 46.9102C112.088 47.1363 110.722 47.2494 109.201 47.2494C106.568 47.2494 104.663 46.6248 103.487 45.3648C102.311 44.1102 101.723 42.2956 101.723 39.9318C101.723 39.2911 101.755 38.6072 101.809 37.8695C101.868 37.1372 101.982 36.378 102.149 35.5972H105.92C109.433 35.5972 112.444 35.3496 114.963 34.8488C117.478 34.3534 119.544 33.6427 121.158 32.7165C122.771 31.7958 123.958 30.6812 124.719 29.3781C125.479 28.075 125.857 26.6104 125.857 24.9735M119.22 27.7412C118.805 28.4519 118.093 29.0766 117.084 29.6042C116.075 30.1373 114.737 30.5573 113.059 30.8642C111.386 31.1711 109.303 31.3273 106.811 31.3273H103.179C103.584 30.0027 104.113 28.7427 104.766 27.542C105.419 26.3466 106.201 25.2966 107.113 24.3974C108.025 23.4982 109.077 22.782 110.264 22.2489C111.451 21.7159 112.816 21.4466 114.359 21.4466C116.113 21.4466 117.467 21.8182 118.417 22.5666C119.366 23.3151 119.841 24.2897 119.841 25.4958C119.841 26.2766 119.636 27.025 119.22 27.7304V27.7412ZM154.583 18.469C154.583 18.1621 154.513 17.9359 154.367 17.7959C154.227 17.6559 154.017 17.5321 153.747 17.4244C153.472 17.3167 153.159 17.2251 152.803 17.139C152.446 17.0582 152.063 16.9882 151.648 16.9236C151.232 16.8644 150.822 16.8375 150.418 16.8375C149.49 16.8375 148.551 17.0367 147.59 17.4405C146.63 17.8444 145.707 18.3828 144.833 19.0559C143.954 19.729 143.144 20.5205 142.394 21.4197C141.65 22.3189 141.002 23.2558 140.452 24.2251L141.628 18.399C141.65 18.2321 141.639 18.0813 141.596 17.9359C141.547 17.7959 141.434 17.6775 141.256 17.5805C141.078 17.4836 140.83 17.419 140.511 17.3867C140.188 17.3544 139.783 17.3328 139.281 17.3328C138.779 17.3328 138.396 17.349 138.051 17.3867C137.706 17.4244 137.414 17.489 137.177 17.5805C136.94 17.6721 136.761 17.7905 136.643 17.9359C136.524 18.0759 136.454 18.2321 136.427 18.399L130.055 50.4048C130.006 50.5932 130.012 50.7548 130.071 50.884C130.13 51.0132 130.26 51.1263 130.465 51.2232C130.664 51.3148 130.95 51.3901 131.317 51.4386C131.684 51.4871 132.164 51.5086 132.758 51.5086C133.351 51.5086 133.81 51.4871 134.199 51.4386C134.592 51.3901 134.905 51.3201 135.143 51.2232C135.38 51.1263 135.558 51.0186 135.677 50.884C135.796 50.7548 135.877 50.5932 135.925 50.4048L138.736 36.1626C139.141 34.1973 139.761 32.3719 140.603 30.6919C141.445 29.0119 142.378 27.5527 143.398 26.325C144.418 25.092 145.454 24.1281 146.511 23.4282C147.569 22.7282 148.497 22.3836 149.306 22.3836C149.781 22.3836 150.196 22.4266 150.553 22.5074C150.909 22.5882 151.222 22.6905 151.497 22.8089C151.772 22.9274 152.02 23.0297 152.247 23.1105C152.473 23.1912 152.678 23.2343 152.867 23.2343C153.056 23.2343 153.229 23.1266 153.385 22.9166C153.542 22.7012 153.687 22.4374 153.828 22.1143C153.968 21.7966 154.087 21.4466 154.184 21.0643C154.275 20.6874 154.351 20.3159 154.4 19.9605C154.448 19.6051 154.486 19.2928 154.524 19.0182C154.556 18.749 154.578 18.5605 154.578 18.469M185.651 24.9681C185.651 24.0205 185.451 23.0674 185.046 22.1089C184.642 21.1505 184 20.2782 183.109 19.4974C182.219 18.7167 181.081 18.0759 179.694 17.5805C178.307 17.0852 176.613 16.8321 174.622 16.8321C172.297 16.8321 170.209 17.1982 168.358 17.9305C166.507 18.6628 164.878 19.6374 163.464 20.8436C162.051 22.0497 160.837 23.4497 159.817 25.0328C158.797 26.6212 157.966 28.2796 157.324 30.0081C156.682 31.7365 156.213 33.4865 155.916 35.2472C155.619 37.0134 155.468 38.6611 155.468 40.201C155.468 42.1879 155.727 43.9218 156.25 45.3864C156.774 46.8563 157.561 48.0786 158.619 49.064C159.676 50.0494 160.998 50.7763 162.59 51.2501C164.182 51.724 166.032 51.9609 168.142 51.9609C169.329 51.9609 170.516 51.8909 171.703 51.7455C172.89 51.6055 173.98 51.4171 174.978 51.1963C175.976 50.9701 176.834 50.7225 177.557 50.4478C178.28 50.1732 178.788 49.8986 179.074 49.6132C179.262 49.3979 179.435 49.1394 179.592 48.8325C179.748 48.5256 179.872 48.1971 179.964 47.8525C180.056 47.5079 180.131 47.174 180.18 46.8402C180.228 46.5064 180.25 46.2264 180.25 45.9894C180.25 45.7041 180.196 45.4887 180.088 45.3325C179.98 45.1764 179.818 45.101 179.608 45.101C179.397 45.101 179.003 45.2141 178.431 45.4402C177.86 45.6664 177.131 45.9087 176.241 46.1671C175.351 46.4256 174.298 46.6733 173.09 46.894C171.881 47.1202 170.516 47.2333 169 47.2333C166.367 47.2333 164.462 46.6087 163.286 45.3487C162.11 44.0941 161.522 42.2795 161.522 39.9157C161.522 39.2749 161.549 38.5911 161.608 37.8534C161.667 37.1211 161.781 36.3619 161.948 35.5811H165.719C169.232 35.5811 172.243 35.3334 174.762 34.8326C177.277 34.3373 179.343 33.6265 180.957 32.7004C182.57 31.7796 183.757 30.665 184.518 29.3619C185.278 28.0589 185.656 26.5943 185.656 24.9574M179.02 27.725C178.604 28.4358 177.892 29.0604 176.883 29.5881C175.874 30.1212 174.536 30.5412 172.858 30.8481C171.185 31.155 169.103 31.3111 166.61 31.3111H162.979C163.383 29.9865 163.912 28.7266 164.565 27.5258C165.218 26.3304 166 25.2804 166.912 24.3812C167.824 23.482 168.876 22.7659 170.063 22.2328C171.25 21.6997 172.615 21.4305 174.158 21.4305C175.912 21.4305 177.266 21.802 178.216 22.5505C179.165 23.2989 179.64 24.2735 179.64 25.4797C179.64 26.2604 179.435 27.0089 179.02 27.7143V27.725ZM221.148 25.4904C221.148 24.3543 221.008 23.2666 220.722 22.222C220.436 21.1774 219.961 20.262 219.297 19.4705C218.634 18.679 217.765 18.0382 216.697 17.5536C215.628 17.069 214.301 16.8267 212.71 16.8267C211.263 16.8267 209.866 17.0744 208.528 17.5751C207.19 18.0705 205.96 18.7005 204.843 19.4597C203.726 20.219 202.765 21.0482 201.962 21.9474C201.158 22.8466 200.575 23.6974 200.219 24.5051L201.427 18.3936C201.449 18.2267 201.438 18.0759 201.395 17.9305C201.346 17.7905 201.233 17.6721 201.055 17.5751C200.877 17.4782 200.629 17.4136 200.31 17.3813C199.987 17.349 199.582 17.3275 199.08 17.3275C198.579 17.3275 198.195 17.3436 197.85 17.3813C197.505 17.419 197.219 17.4836 196.998 17.5751C196.771 17.6667 196.604 17.7851 196.501 17.9305C196.393 18.0705 196.329 18.2267 196.307 18.3936L189.865 50.3994C189.816 50.5878 189.822 50.7494 189.881 50.8786C189.94 51.0078 190.07 51.1209 190.275 51.2178C190.474 51.3094 190.76 51.3848 191.127 51.4332C191.494 51.4817 191.974 51.5032 192.568 51.5032C193.161 51.5032 193.62 51.4817 194.008 51.4332C194.402 51.3848 194.715 51.3148 194.953 51.2178C195.19 51.1209 195.368 51.0132 195.487 50.8786C195.606 50.7494 195.686 50.5878 195.735 50.3994L198.584 36.1195C198.989 34.0842 199.636 32.1942 200.526 30.455C201.417 28.7158 202.426 27.2135 203.553 25.9427C204.681 24.6774 205.9 23.6812 207.222 22.9597C208.539 22.2382 209.828 21.8774 211.085 21.8774C212.531 21.8774 213.567 22.3189 214.182 23.2074C214.798 24.0958 215.105 25.2643 215.105 26.7073C215.105 27.2296 215.073 27.8327 215.013 28.5166C214.954 29.2058 214.841 29.9165 214.673 30.6488L210.724 50.3994C210.702 50.5878 210.719 50.7494 210.778 50.8786C210.837 51.0078 210.967 51.1209 211.172 51.2178C211.371 51.3094 211.657 51.3848 212.024 51.4332C212.391 51.4817 212.861 51.5032 213.433 51.5032C214.004 51.5032 214.512 51.4817 214.889 51.4332C215.267 51.3848 215.585 51.3148 215.834 51.2178C216.082 51.1209 216.26 51.0132 216.368 50.8786C216.476 50.7494 216.551 50.5878 216.6 50.3994L220.625 30.4335C220.792 29.5827 220.922 28.7535 221.019 27.9458C221.116 27.1435 221.159 26.325 221.159 25.4958M225.341 51.2986C225.394 51.2986 225.448 51.2986 225.502 51.2986H245.331C245.363 51.2986 245.396 51.2986 245.428 51.2986L245.477 51.2932C245.558 51.2825 245.639 51.2555 245.714 51.2232C245.779 51.1909 245.838 51.1586 245.898 51.1101C246.065 50.9809 246.216 50.8086 246.362 50.5932C246.47 50.4317 246.561 50.254 246.642 50.0602V50.044H246.648C246.669 49.9848 246.696 49.9255 246.718 49.8663L246.75 49.7694V49.764L246.783 49.6671V49.6563L246.815 49.554C246.853 49.4356 246.885 49.3225 246.923 49.204V49.1932L246.955 49.0694C246.966 49.0263 246.977 48.9779 246.988 48.9348V48.9079H246.993C247.004 48.8648 247.015 48.8217 247.02 48.7786V48.6979H247.036C247.042 48.6602 247.047 48.6225 247.058 48.5848V48.5202H247.068C247.079 48.4448 247.09 48.3694 247.095 48.294C247.117 48.0571 247.128 47.8525 247.128 47.6748V47.664V47.594V47.5779C247.128 47.454 247.117 47.341 247.101 47.2387H247.09V47.174C247.079 47.1202 247.068 47.0717 247.058 47.0233V47.0125C247.058 47.0125 247.047 46.9694 247.036 46.9533H247.02V46.9048C247.02 46.9048 247.004 46.8617 246.993 46.8456H246.982V46.824C246.982 46.824 246.966 46.7917 246.961 46.7756H246.95V46.754C246.95 46.754 246.928 46.7164 246.917 46.7002C246.89 46.6625 246.869 46.6302 246.836 46.5979H246.809V46.571H246.804L246.777 46.5656V46.544L246.761 46.5333H246.739V46.5171C246.739 46.5171 246.718 46.501 246.707 46.4956H246.702C246.658 46.4633 246.604 46.4417 246.556 46.4256H246.491V46.4094C246.459 46.404 246.421 46.3933 246.383 46.3933H246.313H246.281H231.578L249.696 24.4405C249.761 24.3651 249.826 24.2897 249.885 24.2143C249.934 24.1551 249.982 24.1012 250.025 24.042C250.074 23.9828 250.117 23.9289 250.166 23.8697V23.8643C250.214 23.8051 250.257 23.7458 250.306 23.6866C250.381 23.5897 250.451 23.4982 250.522 23.4066L250.592 23.3097V23.2989H250.603C250.635 23.2505 250.667 23.2074 250.7 23.1589L250.77 23.062V23.0512C250.818 22.9812 250.867 22.9059 250.91 22.8412C250.948 22.7874 250.98 22.7282 251.013 22.6743V22.6635H251.018L251.045 22.6151V22.5935H251.056L251.077 22.5505V22.5182H251.094L251.115 22.4805L251.153 22.4159L251.185 22.3512L251.218 22.2866L251.25 22.2166C251.277 22.1628 251.299 22.1089 251.32 22.0551V22.0389H251.331L251.358 21.9689C251.369 21.942 251.38 21.9097 251.39 21.8828V21.8612H251.396L251.423 21.7859V21.7536H251.433L251.46 21.6836V21.6513H251.471L251.498 21.5759V21.5436H251.509C251.525 21.4951 251.541 21.4413 251.552 21.3928C251.585 21.2905 251.612 21.1666 251.639 21.032V21.0105C251.655 20.9351 251.671 20.8543 251.687 20.7736C251.736 20.5259 251.784 20.2782 251.827 20.0251L251.844 19.9228V19.9067C251.854 19.842 251.865 19.7774 251.876 19.7128V19.6913C251.887 19.6105 251.898 19.5351 251.908 19.4597V19.4436C251.908 19.4005 251.919 19.3574 251.924 19.3144C251.93 19.239 251.941 19.1744 251.946 19.1097V18.5336C251.941 18.4797 251.93 18.4259 251.914 18.3721H251.908V18.3451C251.892 18.2805 251.871 18.2159 251.844 18.1567H251.838V18.1405C251.838 18.1405 251.822 18.1028 251.811 18.0867H251.8V18.0705C251.8 18.0705 251.779 18.0328 251.768 18.0167L251.746 17.979H251.73V17.9574C251.73 17.9574 251.709 17.9251 251.692 17.909C251.633 17.8336 251.552 17.7744 251.46 17.7259H251.444V17.7151C251.444 17.7151 251.407 17.6936 251.385 17.6882H251.374C251.342 17.6721 251.315 17.6613 251.282 17.6505H251.266C251.223 17.6344 251.174 17.6236 251.126 17.6128C251.013 17.5913 250.889 17.5805 250.754 17.5805H232.279C232.198 17.5805 232.117 17.5913 232.042 17.6075H232.026C231.907 17.6344 231.799 17.6828 231.691 17.7528C231.664 17.769 231.637 17.7905 231.61 17.8121V17.8228H231.599C231.475 17.9198 231.357 18.0382 231.254 18.1782C231.238 18.1944 231.227 18.2159 231.211 18.2321C231.179 18.2805 231.141 18.3344 231.108 18.3882C231.017 18.539 230.936 18.7005 230.86 18.8836L230.839 18.9374C230.806 19.0128 230.779 19.0936 230.752 19.169V19.2067H230.741L230.72 19.2767V19.3144H230.709L230.682 19.3951V19.422H230.677C230.666 19.4544 230.655 19.4867 230.65 19.5244V19.5674H230.639L230.612 19.6644V19.6751L230.59 19.7613C230.574 19.842 230.558 19.9228 230.542 20.0036V20.0305H230.536C230.526 20.0843 230.515 20.1382 230.504 20.192V20.2082C230.493 20.2782 230.482 20.3428 230.472 20.4128V20.4236C230.466 20.4667 230.461 20.5151 230.45 20.5582C230.45 20.5959 230.439 20.639 230.434 20.6766V20.7466H230.429C230.412 20.8759 230.407 20.9997 230.402 21.1182V21.2097V21.2743C230.402 21.3013 230.402 21.3282 230.402 21.3551V21.4143C230.412 21.5974 230.434 21.7536 230.472 21.8882C230.499 21.9851 230.536 22.0659 230.574 22.1359C230.59 22.1628 230.607 22.1897 230.623 22.2112C230.65 22.2489 230.682 22.2812 230.72 22.3136H230.752V22.3405H230.763L230.79 22.3459V22.3674L230.812 22.3836H230.822C230.866 22.4159 230.909 22.4374 230.957 22.4536H231V22.4697C231.027 22.4805 231.054 22.4859 231.087 22.4912H231.179V22.5074C231.222 22.5074 231.265 22.5128 231.313 22.5128H244.7L240.367 27.7358L232.252 37.5088L226.479 44.4656C226.398 44.5625 226.323 44.6541 226.252 44.7456C226.112 44.9233 225.977 45.0902 225.859 45.2464C225.799 45.3218 225.745 45.3918 225.697 45.4564C225.481 45.7417 225.303 45.9841 225.162 46.1833C225.022 46.3825 224.914 46.5602 224.844 46.7164C224.823 46.7594 224.806 46.8025 224.79 46.8456C224.742 46.964 224.704 47.0933 224.666 47.2279C224.618 47.3463 224.564 47.524 224.504 47.761C224.477 47.8633 224.456 47.971 224.429 48.084V48.0948C224.418 48.1486 224.407 48.2025 224.396 48.2617V48.2725C224.386 48.3317 224.375 48.3909 224.364 48.4502L224.348 48.5256C224.299 48.8002 224.251 49.064 224.207 49.3279C224.18 49.4786 224.159 49.6079 224.148 49.7263V49.7371C224.137 49.8232 224.137 49.8986 224.137 49.9686C224.137 50.0386 224.137 50.1032 224.148 50.1678V50.2163C224.153 50.2863 224.164 50.3509 224.18 50.4155V50.4263C224.229 50.6309 224.31 50.8032 224.429 50.9486L224.45 50.9809C224.472 51.0078 224.499 51.0348 224.526 51.0563H224.537V51.0671C224.537 51.0671 224.558 51.0832 224.564 51.094H224.569C224.661 51.1748 224.769 51.2286 224.887 51.2717C224.925 51.2878 224.968 51.2986 225.006 51.3094H225.028C225.087 51.3255 225.152 51.3363 225.216 51.3471H225.276" fill="url(#paint0_linear_67_1758)"/>
<path id="Vector_2" d="M102.046 56.8394L99.4133 63.8986H97.4979L96.4242 60.2748H96.381L95.2965 63.8986H93.3973L90.7534 56.8394H92.5987L94.3685 61.9332H94.4116L95.8253 56.8394H96.9853L98.399 61.9332H98.4421L100.185 56.8394H102.041H102.046ZM111.213 56.8394L110.971 57.6686H110.911C110.539 57.0548 109.579 56.6133 108.553 56.6133C106.179 56.6133 104.696 58.5086 104.696 60.3663C104.696 62.224 106.196 64.1193 108.553 64.1193C109.611 64.1193 110.582 63.6778 110.884 63.107H110.954L111.138 63.904H112.568V56.8448H111.208L111.213 56.8394ZM108.553 62.6763C107.323 62.6763 106.379 61.734 106.379 60.3663C106.379 58.9232 107.323 58.0563 108.553 58.0563C109.784 58.0563 110.911 58.9286 110.911 60.3663C110.911 61.804 109.794 62.6763 108.553 62.6763ZM121.692 56.8394L119.56 61.9332H119.517L117.343 56.8394H115.498L118.773 63.8986L117.499 66.9947H119.258L123.558 56.8394H121.686H121.692ZM132.542 60.3609C132.542 62.2994 134.101 64.1247 136.475 64.1247C138.85 64.1247 140.403 62.3263 140.403 60.3609C140.403 58.5086 138.844 56.6079 136.475 56.6079C134.107 56.6079 132.542 58.5194 132.542 60.3609ZM136.475 58.0671C137.689 58.0671 138.72 58.9394 138.72 60.3609C138.72 61.7824 137.722 62.687 136.475 62.687C135.229 62.687 134.231 61.7447 134.231 60.3609C134.231 58.9771 135.235 58.0671 136.475 58.0671ZM146.069 56.581C146.069 55.811 146.425 55.3264 147.455 55.3264C147.714 55.3264 147.887 55.3694 148.087 55.4287V53.9318C147.817 53.8618 147.488 53.7864 147.045 53.7864C145.303 53.7864 144.369 54.5994 144.369 56.581V56.8394H143.269V58.2825H144.369V63.904H146.069V58.2825H147.725V56.8394H146.069V56.581ZM160.966 62.4878C160.88 62.504 160.783 62.5147 160.696 62.5147C160.011 62.5147 159.31 62.2886 159.31 61.3463V58.2771H160.966V56.834H159.31V54.4541L157.61 54.7987V56.8394H156.493V58.2825H157.61V61.4324C157.61 63.414 158.721 64.044 160.27 64.044C160.529 64.044 160.756 64.017 160.971 63.9847V62.4878H160.966ZM172.059 60.3609C172.059 58.024 171.072 56.6079 168.412 56.6079C167.311 56.6079 166.34 57.0925 165.968 57.6633H165.898V53.9264H164.182V63.8986H165.881V60.3609C165.881 58.9179 166.982 58.0509 168.196 58.0509C169.567 58.0509 170.365 58.8048 170.365 60.3609V63.8986H172.054V60.3609M183.503 60.3609C183.503 58.5086 181.928 56.6079 179.559 56.6079C177.19 56.6079 175.631 58.5032 175.631 60.3609C175.631 62.2186 177.201 64.1247 179.559 64.1247C181.075 64.1247 182.257 63.3817 182.915 62.3263L181.458 61.6424C181.059 62.2994 180.358 62.6817 179.559 62.6817C178.512 62.6817 177.644 61.9978 177.385 60.9694H183.503V60.3555V60.3609ZM177.412 59.6609C177.681 58.6486 178.539 58.0509 179.554 58.0509C180.568 58.0509 181.426 58.6486 181.712 59.6609H177.412ZM195.492 56.581C195.492 55.811 195.848 55.3264 196.879 55.3264C197.138 55.3264 197.305 55.3694 197.51 55.4287V53.9318C197.24 53.8618 196.911 53.7864 196.469 53.7864C194.726 53.7864 193.793 54.5994 193.793 56.581V56.8394H192.692V58.2825H193.793V63.904H195.492V58.2825H197.149V56.8394H195.492V56.581ZM200.37 60.3609C200.37 62.6978 201.454 64.1139 204.114 64.1139C205.258 64.1139 206.289 63.6293 206.575 63.0586H206.645L206.888 63.8986H208.231V56.8394H206.532L206.548 60.3609C206.548 61.804 205.447 62.6709 204.249 62.6709C202.879 62.6709 202.075 61.9171 202.075 60.3609V56.8394H200.375V60.3609M215.499 62.4878C215.413 62.504 215.316 62.5147 215.229 62.5147C214.544 62.5147 213.843 62.2886 213.843 61.3463V58.2771H215.499V56.834H213.843V54.4541L212.143 54.7987V56.8394H211.026V58.2825H212.143V61.4324C212.143 63.414 213.26 64.044 214.803 64.044C215.062 64.044 215.289 64.017 215.504 63.9847V62.4878H215.499ZM218.715 60.3609C218.715 62.6978 219.799 64.1139 222.459 64.1139C223.603 64.1139 224.634 63.6293 224.92 63.0586H224.99L225.233 63.8986H226.576V56.8394H224.876L224.893 60.3609C224.893 61.804 223.792 62.6709 222.594 62.6709C221.224 62.6709 220.42 61.9171 220.42 60.3609V56.8394H218.72V60.3609M235.117 56.9525C234.901 56.7802 234.502 56.624 233.973 56.624C232.83 56.624 232.117 57.1248 231.831 57.6956H231.761L231.518 56.8394H230.159V63.8986H231.858V60.3609C231.858 58.934 232.387 58.2232 233.531 58.2232C233.876 58.2232 234.119 58.2825 234.329 58.4386L235.117 56.9525ZM245.639 60.3609C245.639 58.5086 244.063 56.6079 241.694 56.6079C239.326 56.6079 237.761 58.5032 237.761 60.3609C237.761 62.2186 239.337 64.1247 241.694 64.1247C243.211 64.1247 244.398 63.3817 245.056 62.3263L243.599 61.6424C243.2 62.2994 242.498 62.6817 241.7 62.6817C240.659 62.6817 239.784 61.9978 239.525 60.9694H245.644V60.3555L245.639 60.3609ZM239.547 59.6609C239.817 58.6486 240.675 58.0509 241.689 58.0509C242.703 58.0509 243.561 58.6486 243.847 59.6609H239.547Z" fill="url(#paint1_linear_67_1758)"/>
<path id="Vector_3" d="M21.4903 9.76758C24.1881 9.76758 26.3841 7.57607 26.3841 4.88379C26.3841 2.19151 24.1881 0 21.4903 0C18.7925 0 16.5965 2.19151 16.5965 4.88379C16.5965 7.57607 18.7925 9.76758 21.4903 9.76758ZM21.4903 2.39613C22.8662 2.39613 23.9831 3.51073 23.9831 4.88379C23.9831 6.25685 22.8662 7.37145 21.4903 7.37145C20.1144 7.37145 18.9976 6.25685 18.9976 4.88379C18.9976 3.51073 20.1144 2.39613 21.4903 2.39613ZM28.2186 38.0096C25.5208 38.0096 23.3248 40.2011 23.3248 42.8934C23.3248 43.3726 23.3949 43.8356 23.5244 44.2718L16.6019 48.3587C16.2566 48.0141 15.8573 47.7179 15.4203 47.4864L21.3878 23.0674C24.064 23.0459 26.2384 20.8651 26.2384 18.189C26.2384 15.5129 24.0424 13.3052 21.3446 13.3052C18.6468 13.3052 16.4508 15.4967 16.4508 18.189C16.4508 18.7059 16.5318 19.2067 16.6829 19.6752L8.27117 24.8982C7.39169 24.0528 6.19927 23.5305 4.88275 23.5305C2.18496 23.5305 -0.0110321 25.722 -0.0110321 28.4143C-0.0110321 31.1066 2.18496 33.2981 4.88275 33.2981C7.58053 33.2981 9.77653 31.1066 9.77653 28.4143C9.77653 27.8974 9.6956 27.3966 9.54452 26.9281L17.9562 21.7051C18.2853 22.0174 18.6522 22.2867 19.0569 22.502L17.4382 29.1358L14.8538 26.982C14.3466 26.5566 13.5858 26.6266 13.1649 27.1328C12.7387 27.6389 12.8088 28.3981 13.316 28.8181L16.807 31.7312L13.0948 46.9264C10.4186 46.9479 8.24419 49.1287 8.24419 51.8048C8.24419 54.4809 10.4402 56.6886 13.138 56.6886C15.8358 56.6886 18.0317 54.4971 18.0317 51.8048C18.0317 51.3256 17.9616 50.8625 17.8321 50.4263L24.7546 46.3395C25.6395 47.2279 26.8697 47.7825 28.224 47.7825C30.9218 47.7825 33.1178 45.591 33.1178 42.8987C33.1178 40.2065 30.9218 38.0149 28.224 38.0149L28.2186 38.0096ZM4.89354 30.8912C3.51767 30.8912 2.40079 29.7766 2.40079 28.4035C2.40079 27.0305 3.51767 25.9159 4.89354 25.9159C6.26941 25.9159 7.38629 27.0305 7.38629 28.4035C7.38629 29.7766 6.26941 30.8912 4.89354 30.8912ZM18.8573 18.1836C18.8573 16.8106 19.9742 15.696 21.35 15.696C22.7259 15.696 23.8428 16.8106 23.8428 18.1836C23.8428 19.5567 22.7259 20.6713 21.35 20.6713C19.9742 20.6713 18.8573 19.5567 18.8573 18.1836ZM13.138 54.2871C11.7621 54.2871 10.6452 53.1725 10.6452 51.7994C10.6452 50.4263 11.7621 49.3117 13.138 49.3117C14.5138 49.3117 15.6307 50.4263 15.6307 51.7994C15.6307 53.1725 14.5138 54.2871 13.138 54.2871ZM28.2186 45.381C26.8427 45.381 25.7258 44.2664 25.7258 42.8934C25.7258 41.5203 26.8427 40.4057 28.2186 40.4057C29.5945 40.4057 30.7113 41.5203 30.7113 42.8934C30.7113 44.2664 29.5945 45.381 28.2186 45.381Z" fill="url(#paint2_linear_67_1758)"/>
</g>
<defs>
<linearGradient id="paint0_linear_67_1758" x1="36.6413" y1="32.9157" x2="253.84" y2="32.9157" gradientUnits="userSpaceOnUse">
<stop stop-color="#2B6EB2"/>
<stop offset="1" stop-color="#0C487A"/>
</linearGradient>
<linearGradient id="paint1_linear_67_1758" x1="243.842" y1="61.3517" x2="91.5359" y2="59.6648" gradientUnits="userSpaceOnUse">
<stop stop-color="#2B6EB2"/>
<stop offset="1" stop-color="#0C487A"/>
</linearGradient>
<linearGradient id="paint2_linear_67_1758" x1="14.2009" y1="56.5809" x2="20.3969" y2="1.21949" gradientUnits="userSpaceOnUse">
<stop stop-color="#0C487A"/>
<stop offset="1" stop-color="#2B6EB2"/>
</linearGradient>
<clipPath id="clip0_67_1758">
<rect width="252" height="67" fill="white"/>
</clipPath>
</defs>
</svg>
