<svg width="30" height="30" viewBox="0 0 30 30" fill="none" xmlns="http://www.w3.org/2000/svg">
<g id="Referral Applications">
<rect width="30" height="30" rx="15" fill="white"/>
<g id="Group 17">
<path id="Vector" d="M7.78 13.8501C7.87 13.9001 7.94 13.9301 8 13.9701C10.1 15.1801 12.19 16.3901 14.29 17.6001C14.45 17.6901 14.51 17.8001 14.51 17.9801C14.51 20.3901 14.51 22.8101 14.51 25.2201C14.51 25.3001 14.51 25.3701 14.51 25.5001C14.42 25.4501 14.35 25.4201 14.29 25.3901C12.24 24.2101 10.19 23.0201 8.15 21.8501C7.91 21.7101 7.77 21.5401 7.77 21.2501C7.77 18.8201 7.77 16.3901 7.77 13.9601C7.77 13.9401 7.77 13.9101 7.78 13.8501Z" fill="#117AE0"/>
<path id="Vector_2" d="M15.85 25.5001V25.2201C15.85 22.8101 15.85 20.3901 15.85 17.9801C15.85 17.7901 15.9 17.6901 16.07 17.6001C18.16 16.4001 20.25 15.1901 22.34 13.9901C22.41 13.9501 22.49 13.9101 22.59 13.8601C22.59 13.9601 22.6 14.0301 22.6 14.1101C22.6 16.4601 22.6 18.8101 22.6 21.1601C22.6 21.4901 22.48 21.7001 22.2 21.8701C20.15 23.0501 18.1 24.2301 16.05 25.4101C16 25.4401 15.94 25.4601 15.85 25.5101V25.5001Z" fill="#117AE0"/>
<path id="Vector_3" d="M8.46 12.6599C9.19 12.2399 9.9 11.8299 10.6 11.4199C11.99 10.6199 13.39 9.81989 14.78 9.00989C15.05 8.84989 15.3 8.84989 15.57 9.00989C17.64 10.2099 19.71 11.3999 21.77 12.5999C21.8 12.6199 21.83 12.6399 21.89 12.6799C21.82 12.7199 21.77 12.7599 21.72 12.7999C19.6 14.0299 17.47 15.2499 15.35 16.4799C15.23 16.5499 15.14 16.5599 15.01 16.4799C12.88 15.2499 10.75 14.0199 8.62 12.7899C8.57 12.7599 8.52 12.7199 8.45 12.6799L8.46 12.6599Z" fill="#117AE0"/>
<path id="Vector_4" d="M7.41 22.7001C6.58 23.1801 5.79 23.6401 4.99 24.0901C4.66 24.2701 4.28 24.1501 4.1 23.8401C3.93 23.5501 3.98 23.1401 4.28 22.9601C5.06 22.4801 5.86 22.0301 6.67 21.5601C6.78 22.0301 7 22.4101 7.41 22.6901V22.7001Z" fill="#117AE0"/>
<path id="Vector_5" d="M22.95 22.7001C23.34 22.4101 23.58 22.0501 23.68 21.5601C23.91 21.6901 24.13 21.8101 24.34 21.9401C24.89 22.2601 25.45 22.5801 26 22.9001C26.27 23.0601 26.39 23.3001 26.33 23.6101C26.28 23.8901 26.11 24.0801 25.83 24.1301C25.69 24.1601 25.5 24.1501 25.38 24.0801C24.57 23.6301 23.77 23.1601 22.94 22.6801L22.95 22.7001Z" fill="#117AE0"/>
<path id="Vector_6" d="M14.52 7.89C14.52 7.08 14.51 6.32 14.52 5.56C14.54 5.24 14.85 5 15.17 5C15.5 5 15.82 5.22 15.83 5.54C15.85 6.31 15.83 7.08 15.83 7.89C15.39 7.72 14.96 7.71 14.51 7.89H14.52Z" fill="#117AE0"/>
</g>
</g>
</svg>
