<svg width="30" height="30" viewBox="0 0 30 30" fill="none" xmlns="http://www.w3.org/2000/svg">
<g id="Referral Applications">
<rect width="30" height="30" rx="15" fill="white"/>
<g id="Group 20">
<path id="Vector" d="M14.7508 26V21.9798H13.1644C13.2899 21.6853 13.3827 21.427 13.507 21.184C14.1498 19.9276 15.1312 19.0419 16.4444 18.5228C16.5629 18.4759 16.6472 18.4833 16.7554 18.5618C18.386 19.7449 20.5315 19.7529 22.1718 18.5813C22.2978 18.4913 22.3975 18.4753 22.5407 18.5326C24.629 19.3673 25.9782 21.3021 26.0189 23.553C26.0338 24.3683 26.0143 25.1841 26.0103 26H14.7502H14.7508Z" fill="#117AE0"/>
<path id="Vector_2" d="M9.37859 25.9999C9.06119 25.9208 8.73463 25.8681 8.42755 25.7592C6.78844 25.1772 5.71136 23.6641 5.69073 21.9219C5.68042 21.0631 5.68844 20.2037 5.68844 19.3443C5.68844 19.2664 5.68844 19.1885 5.68844 19.0865H4.67209C5.47933 17.8954 6.25906 16.745 7.06172 15.5608C7.85864 16.7353 8.63838 17.8857 9.44103 19.0682H8.44645C8.44072 19.1535 8.43328 19.2154 8.43328 19.2767C8.4327 20.1286 8.43098 20.9806 8.43328 21.8331C8.43557 22.6724 9.00906 23.2533 9.84723 23.2568C10.957 23.2613 12.0673 23.2579 13.177 23.2579C13.2612 23.2579 13.3454 23.2579 13.4618 23.2579V25.9999H9.37916H9.37859Z" fill="#117AE0"/>
<path id="Vector_3" d="M12.1721 4C12.309 4.03495 12.4477 4.06646 12.5835 4.10484C13.7333 4.43083 14.5623 5.44375 14.6053 6.65145C14.6357 7.50108 14.6511 8.35816 14.5755 9.20321C14.4558 10.5352 13.3346 11.5653 12.0214 11.645C10.6734 11.7269 9.45535 10.8406 9.12822 9.5378C9.09671 9.41347 9.06176 9.28457 9.06291 9.15853C9.07093 8.17311 8.9953 7.17509 9.12593 6.20572C9.28119 5.05015 10.2242 4.2412 11.3867 4.03667C11.4205 4.03094 11.452 4.0126 11.4846 4C11.7138 4 11.943 4 12.1721 4Z" fill="#117AE0"/>
<path id="Vector_4" d="M16.1619 13.5412C16.1619 12.9551 16.0989 12.361 16.1739 11.7847C16.383 10.1851 17.7712 9.00259 19.4126 8.9602C20.995 8.91895 22.4256 10.0539 22.7464 11.6065C22.7722 11.7325 22.8031 11.8603 22.8043 11.9875C22.8146 13.1597 22.9441 14.3404 22.7384 15.5006C22.4611 17.0664 21.0065 18.2002 19.4264 18.1646C17.793 18.128 16.3882 16.9208 16.1739 15.3196C16.0954 14.734 16.1212 14.1348 16.0995 13.5418C16.1201 13.5418 16.1413 13.5418 16.1619 13.5412Z" fill="#117AE0"/>
<path id="Vector_5" d="M15.6486 17.421C15.2481 17.6617 14.8769 17.888 14.5004 18.1068C14.4369 18.1441 14.3532 18.1624 14.2787 18.1624C13.0326 18.1658 11.786 18.167 10.5399 18.1601C10.4631 18.1601 10.356 18.1097 10.3136 18.0478C9.26801 16.5176 8.22875 14.9821 7.1889 13.4479C7.17687 13.4301 7.17057 13.4095 7.15739 13.382C7.63062 12.7214 8.24192 12.2333 9.00676 11.944C9.06291 11.9228 9.16031 11.9434 9.20958 11.9818C10.8435 13.2645 12.8035 13.2691 14.4409 11.9795C14.5532 11.8913 14.6425 11.9096 14.7273 11.972C14.7817 12.0121 14.8293 12.1004 14.8299 12.1674C14.8362 12.8549 14.8522 13.543 14.8264 14.2293C14.7829 15.382 14.9788 16.466 15.648 17.421H15.6486Z" fill="#117AE0"/>
</g>
</g>
</svg>
