<svg width="30" height="30" viewBox="0 0 30 30" fill="none" xmlns="http://www.w3.org/2000/svg">
<g id="Referral Applications">
<rect width="30" height="30" rx="15" fill="white"/>
<path id="Vector" d="M6.48198 3H18.518C18.8944 3.1883 19.0006 3.51499 19 3.95479C18.9913 10.0115 18.9942 16.0682 18.9942 22.1255C18.9942 22.7428 18.7581 23 18.1919 23C14.4042 23 10.6171 23 6.82946 23C6.2332 23 6.00577 22.7517 6.00577 22.1021C6.00577 16.0524 6.00866 10.0033 6 3.95479C5.99943 3.51436 6.10736 3.18894 6.48198 3ZM12.4781 10.8671C13.7612 10.8671 15.0444 10.8658 16.3275 10.8683C16.6207 10.8683 16.8487 10.752 16.9792 10.4576C17.1933 9.97419 16.873 9.44845 16.3598 9.44656C15.0767 9.44213 13.7935 9.44529 12.5104 9.44529C11.2272 9.44529 9.9441 9.44656 8.66095 9.44466C8.37581 9.44466 8.15474 9.56219 8.02487 9.84402C7.79975 10.3318 8.12415 10.8645 8.64999 10.8658C9.92621 10.8696 11.2018 10.8671 12.4781 10.8671ZM12.4971 13.7106C13.7733 13.7106 15.049 13.7087 16.3252 13.7118C16.6178 13.7125 16.847 13.5981 16.978 13.3036C17.1939 12.8209 16.8747 12.2926 16.3627 12.2901C15.2816 12.285 14.1999 12.2888 13.1188 12.2888C11.6336 12.2888 10.149 12.2901 8.66384 12.2875C8.36889 12.2875 8.14377 12.4114 8.01621 12.7052C7.80668 13.188 8.1328 13.7074 8.64768 13.7087C9.93082 13.7125 11.214 13.7099 12.4971 13.7099V13.7106ZM12.4873 16.5541C13.778 16.5541 15.068 16.5572 16.3587 16.5528C16.8816 16.5509 17.2014 16.0075 16.9705 15.5222C16.832 15.2309 16.5988 15.1304 16.3079 15.1311C14.4117 15.1342 12.5162 15.1329 10.62 15.1329C9.9568 15.1329 9.29358 15.1323 8.63036 15.1329C8.34291 15.1329 8.12934 15.2758 8.01101 15.5607C7.81303 16.0372 8.13627 16.5509 8.63844 16.5528C9.92159 16.5572 11.2047 16.5541 12.4879 16.5541H12.4873ZM10.5536 8.02354C11.173 8.02354 11.7929 8.02417 12.4123 8.02354C12.8521 8.02291 13.1465 7.73855 13.1482 7.31645C13.1505 6.89435 12.855 6.60305 12.4186 6.60241C11.1724 6.60115 9.92621 6.60115 8.67943 6.60241C8.24652 6.60241 7.94925 6.8994 7.95445 7.32087C7.95906 7.7335 8.25171 8.02164 8.67308 8.02291C9.29993 8.0248 9.92678 8.02291 10.5536 8.02291V8.02354ZM15.0969 17.9758C14.6865 17.9758 14.2761 17.9746 13.8657 17.9758C13.4461 17.9777 13.1528 18.2684 13.1499 18.681C13.1471 19.0943 13.4403 19.3957 13.8559 19.397C14.6842 19.3995 15.5119 19.3995 16.3402 19.397C16.7564 19.3957 17.0484 19.0949 17.045 18.6804C17.0415 18.2665 16.75 17.9784 16.3281 17.9765C15.9177 17.9746 15.5073 17.9765 15.0969 17.9765V17.9758Z" fill="#117AE0"/>
<path id="Vector_2" d="M10.4832 26.9994C10.1086 26.81 9.98571 26.485 10.0013 26.0423C10.0238 25.4203 10.0071 24.7964 10.0071 24.1491H10.28C12.9486 24.1491 15.6166 24.1491 18.2851 24.1491C19.5905 24.1491 20.3962 23.2604 20.3962 21.8213C20.3962 16.9859 20.3962 12.1499 20.3962 7.31448V7.01489C20.4695 7.00918 20.5312 7.00095 20.5936 7.00095C21.1418 6.99968 21.6895 6.99968 22.2377 7.00095C22.7427 7.00158 22.9932 7.27648 22.9932 7.83261C22.9932 13.2064 22.9932 18.5802 22.9932 23.954C22.9932 24.6507 22.977 25.3475 22.999 26.0429C23.0128 26.485 22.891 26.81 22.5171 27H10.4832V26.9994Z" fill="#117AE0"/>
</g>
</svg>
