<svg width="30" height="30" viewBox="0 0 30 30" fill="none" xmlns="http://www.w3.org/2000/svg">
<g id="Referral Applications">
<rect width="30" height="30" rx="15" fill="white"/>
<path id="Vector" d="M14.9879 24.9994C16.6673 24.9994 18.3467 24.9994 20.0262 24.9994C20.9129 24.9994 21.4248 24.6454 21.7398 23.7625C21.8574 23.4335 21.9447 23.0766 21.9655 22.7276C22.0341 21.5842 22.0508 20.4415 21.5181 19.3845C20.9149 18.1883 20.006 17.401 18.7639 17.0684C18.2487 16.9307 17.7448 17.0028 17.2739 17.2676C15.7658 18.1155 14.2577 18.1212 12.7469 17.279C12.1538 16.9485 11.5445 16.9328 10.919 17.1584C9.17179 17.7872 8.04659 19.4466 8.01098 21.4729C7.99956 22.1402 7.9606 22.8133 8.15407 23.4649C8.34754 24.1158 8.63169 24.6954 9.30682 24.9038C9.51237 24.9673 9.7354 24.9944 9.95036 24.9952C11.6298 25.0023 13.3092 24.9994 14.9886 24.9994H14.9879Z" fill="#117AE0"/>
<path id="Vector_2" d="M15.0011 15.9993C17.7758 15.9868 20.0104 13.7532 20 11.0025C19.9895 8.21488 17.7342 5.98274 14.9469 6.0001C12.2041 6.01746 9.98549 8.2857 10.0001 11.0573C10.0147 13.7824 12.2707 16.0118 15.0004 16L15.0011 15.9993Z" fill="#117AE0"/>
<path id="Vector_3" d="M23.8176 20.9906C24.1142 20.9906 24.4016 21.0149 24.6851 20.9853C25.1734 20.9336 25.5416 20.6318 25.7214 20.1081C25.8494 19.7349 25.9524 19.3298 25.9721 18.9322C26.0095 18.1767 26.045 17.4105 25.8251 16.674C25.4281 15.34 24.6477 14.4628 23.475 14.0721C23.032 13.9246 22.6107 14.0174 22.1841 14.2234C21.7503 14.4339 21.2889 14.5685 20.8407 14.7387C20.7751 14.7638 20.6917 14.7813 20.6523 14.8368C20.4325 15.1408 20.2238 15.4547 20 15.7831C22.0968 16.7059 23.3719 18.4435 23.8176 20.9914V20.9906Z" fill="#117AE0"/>
<path id="Vector_4" d="M10 15.7765C9.77292 15.4429 9.56033 15.1206 9.33522 14.8106C9.29639 14.7574 9.20556 14.752 9.13842 14.7277C8.73298 14.5818 8.30318 14.4944 7.92735 14.2793C7.32839 13.9373 6.74786 13.9054 6.14759 14.2056C4.81541 14.8721 4.08679 16.0509 4.01241 17.7221C3.98411 18.3506 3.99859 19.0027 4.11509 19.6138C4.30794 20.6306 4.78579 21 5.68949 21C5.84482 21 6.00016 21 6.16865 21C6.62083 18.4456 7.89181 16.7007 10 15.7773V15.7765Z" fill="#117AE0"/>
<path id="Vector_5" d="M8.93976 13C8.19059 9.77544 9.209 7.2558 12 5.37694C10.5431 4.79893 9.14044 4.8617 7.84921 5.73216C6.39087 6.71504 5.77668 8.10902 6.07234 9.80096C6.34944 11.386 7.355 12.4261 8.94047 13H8.93976Z" fill="#117AE0"/>
<path id="Vector_6" d="M21.5507 13C22.8392 12.45 23.667 11.4308 23.9232 9.88778C24.1977 8.23574 23.7336 6.84042 22.5741 5.82601C21.4818 4.87027 20.2736 4.7778 19 5.37402C21.3243 7.24894 22.17 9.76908 21.5507 13Z" fill="#117AE0"/>
</g>
</svg>
