<svg width="1440" height="940" viewBox="0 0 1440 940" fill="none" xmlns="http://www.w3.org/2000/svg">
<path opacity="0.1" fill-rule="evenodd" clip-rule="evenodd" d="M467.237 94.2484C474.622 57.5988 507.002 30 545.828 30C584.654 30 617.033 57.5988 624.419 94.2484H601.897C594.969 69.8064 572.489 51.9008 545.828 51.9008C519.166 51.9008 496.687 69.8064 489.759 94.2484H467.237Z" fill="#4E5F77"/>
<path fill-rule="evenodd" clip-rule="evenodd" d="M1319.17 559.344C1538.52 559.344 1716.34 381.524 1716.34 162.172C1716.34 -57.18 1538.52 -235 1319.17 -235C1099.82 -235 922 -57.18 922 162.172C922 381.524 1099.82 559.344 1319.17 559.344ZM1319.17 450.849C1478.6 450.849 1607.85 321.604 1607.85 162.173C1607.85 2.741 1478.6 -126.504 1319.17 -126.504C1159.74 -126.504 1030.5 2.741 1030.5 162.173C1030.5 321.604 1159.74 450.849 1319.17 450.849Z" fill="url(#paint0_linear_161_5)"/>
<path fill-rule="evenodd" clip-rule="evenodd" d="M880 925C980.516 925 1062 843.516 1062 743C1062 642.484 980.516 561 880 561C779.484 561 698 642.484 698 743C698 843.516 779.484 925 880 925ZM880 875.283C953.058 875.283 1012.28 816.058 1012.28 743C1012.28 669.942 953.058 610.717 880 610.717C806.942 610.717 747.717 669.942 747.717 743C747.717 816.058 806.942 875.283 880 875.283Z" fill="url(#paint1_linear_161_5)"/>
<defs>
<linearGradient id="paint0_linear_161_5" x1="922" y1="162.172" x2="1716.34" y2="162.172" gradientUnits="userSpaceOnUse">
<stop stop-color="#117AE0"/>
<stop offset="1" stop-color="#09449E"/>
</linearGradient>
<linearGradient id="paint1_linear_161_5" x1="698" y1="743" x2="1062" y2="743" gradientUnits="userSpaceOnUse">
<stop stop-color="#117AE0"/>
<stop offset="1" stop-color="#09449E"/>
</linearGradient>
</defs>
</svg>
