<svg width="30" height="30" viewBox="0 0 30 30" fill="none" xmlns="http://www.w3.org/2000/svg">
<g id="Group 15">
<path id="Subtract" fill-rule="evenodd" clip-rule="evenodd" d="M15 30C23.2843 30 30 23.2843 30 15C30 6.71573 23.2843 0 15 0C6.71573 0 0 6.71573 0 15C0 23.2843 6.71573 30 15 30ZM15 26.25C21.2132 26.25 26.25 21.2132 26.25 15C26.25 8.7868 21.2132 3.75 15 3.75C8.7868 3.75 3.75 8.7868 3.75 15C3.75 21.2132 8.7868 26.25 15 26.25Z" fill="url(#paint0_linear_116_168)"/>
<circle id="Ellipse 3" cx="15" cy="15" r="12" fill="white"/>
<path id="Shape" d="M19.8119 19.6516C19.0072 20.4814 17.8283 21 16.3334 21H11.6667C11.2985 21 11 20.7015 11 20.3333C11 19.9651 11.2985 19.6667 11.6667 19.6667H16.3334C17.505 19.6667 18.3261 19.2686 18.8547 18.7234C19.391 18.1704 19.6667 17.4247 19.6667 16.6667C19.6667 15.9086 19.391 15.1629 18.8547 14.6099C18.3261 14.0648 17.505 13.6667 16.3333 13.6667H11.2761L13.4714 15.8619C13.7318 16.1223 13.7318 16.5444 13.4714 16.8047C13.2111 17.0651 12.789 17.0651 12.5286 16.8047L9.19526 13.4714C9.07024 13.3464 9 13.1768 9 13C9 12.8232 9.07024 12.6536 9.19526 12.5286L12.5286 9.19526C12.789 8.93491 13.2111 8.93491 13.4714 9.19526C13.7318 9.45561 13.7318 9.87772 13.4714 10.1381L11.2761 12.3333H16.3333C17.8283 12.3333 19.0072 12.8519 19.8119 13.6817C20.609 14.5038 21 15.5914 21 16.6667C21 17.7419 20.609 18.8296 19.8119 19.6516Z" fill="#042049"/>
</g>
<defs>
<linearGradient id="paint0_linear_116_168" x1="0" y1="15" x2="30" y2="15" gradientUnits="userSpaceOnUse">
<stop stop-color="#117AE0"/>
<stop offset="1" stop-color="#09449E"/>
</linearGradient>
</defs>
</svg>
