<svg width="66" height="45" viewBox="0 0 66 45" fill="none" xmlns="http://www.w3.org/2000/svg">
<g id="Logo" clip-path="url(#clip0_123_402)">
<path id="Vector" d="M14.327 6.56031C16.1256 6.56031 17.5896 5.0884 17.5896 3.28016C17.5896 1.47191 16.1256 0 14.327 0C12.5285 0 11.0645 1.47191 11.0645 3.28016C11.0645 5.0884 12.5285 6.56031 14.327 6.56031ZM14.327 1.60934C15.2443 1.60934 15.9889 2.35795 15.9889 3.28016C15.9889 4.20236 15.2443 4.95098 14.327 4.95098C13.4098 4.95098 12.6652 4.20236 12.6652 3.28016C12.6652 2.35795 13.4098 1.60934 14.327 1.60934ZM18.8126 25.5288C17.014 25.5288 15.55 27.0007 15.55 28.809C15.55 29.1308 15.5968 29.4419 15.6831 29.7348L11.0681 32.4797C10.8379 32.2482 10.5717 32.0493 10.2804 31.8938L14.2587 15.493C16.0428 15.4786 17.4924 14.0139 17.4924 12.2165C17.4924 10.4191 16.0284 8.93635 14.2299 8.93635C12.4314 8.93635 10.9674 10.4083 10.9674 12.2165C10.9674 12.5637 11.0214 12.9 11.1221 13.2147L5.51428 16.7227C4.92796 16.1549 4.13301 15.8041 3.25533 15.8041C1.45681 15.8041 -0.00718689 17.276 -0.00718689 19.0842C-0.00718689 20.8925 1.45681 22.3644 3.25533 22.3644C5.05386 22.3644 6.51785 20.8925 6.51785 19.0842C6.51785 18.737 6.4639 18.4007 6.36318 18.0861L11.971 14.5781C12.1904 14.7878 12.435 14.9687 12.7048 15.1133L11.6257 19.5688L9.90267 18.1222C9.56455 17.8365 9.05737 17.8835 8.7768 18.2235C8.49263 18.5634 8.53939 19.0734 8.87752 19.3555L11.2048 21.312L8.73004 31.5177C6.9459 31.5322 5.49629 32.9969 5.49629 34.7943C5.49629 36.5917 6.96029 38.0744 8.75881 38.0744C10.5573 38.0744 12.0213 36.6025 12.0213 34.7943C12.0213 34.4724 11.9746 34.1614 11.8882 33.8684L16.5033 31.1235C17.0932 31.7202 17.9133 32.0927 18.8162 32.0927C20.6147 32.0927 22.0787 30.6208 22.0787 28.8126C22.0787 27.0043 20.6147 25.5324 18.8162 25.5324L18.8126 25.5288ZM3.26253 20.7478C2.34528 20.7478 1.60069 19.9992 1.60069 19.077C1.60069 18.1548 2.34528 17.4062 3.26253 17.4062C4.17977 17.4062 4.92436 18.1548 4.92436 19.077C4.92436 19.9992 4.17977 20.7478 3.26253 20.7478ZM12.5717 12.2129C12.5717 11.2907 13.3163 10.5421 14.2335 10.5421C15.1508 10.5421 15.8954 11.2907 15.8954 12.2129C15.8954 13.1351 15.1508 13.8837 14.2335 13.8837C13.3163 13.8837 12.5717 13.1351 12.5717 12.2129ZM8.75881 36.4615C7.84157 36.4615 7.09698 35.7128 7.09698 34.7906C7.09698 33.8684 7.84157 33.1198 8.75881 33.1198C9.67606 33.1198 10.4206 33.8684 10.4206 34.7906C10.4206 35.7128 9.67606 36.4615 8.75881 36.4615ZM18.8126 30.4798C17.8953 30.4798 17.1507 29.7312 17.1507 28.809C17.1507 27.8868 17.8953 27.1381 18.8126 27.1381C19.7298 27.1381 20.4744 27.8868 20.4744 28.809C20.4744 29.7312 19.7298 30.4798 18.8126 30.4798Z" fill="url(#paint0_linear_123_402)"/>
<g id="Group 15">
<path id="Subtract" fill-rule="evenodd" clip-rule="evenodd" d="M51 43C59.2843 43 66 36.2843 66 28C66 19.7157 59.2843 13 51 13C42.7157 13 36 19.7157 36 28C36 36.2843 42.7157 43 51 43ZM51 39.25C57.2132 39.25 62.25 34.2132 62.25 28C62.25 21.7868 57.2132 16.75 51 16.75C44.7868 16.75 39.75 21.7868 39.75 28C39.75 34.2132 44.7868 39.25 51 39.25Z" fill="url(#paint1_linear_123_402)"/>
<circle id="Ellipse 3" cx="51" cy="28" r="12" fill="white"/>
<path id="Shape" d="M46.1881 32.6516C46.9928 33.4814 48.1717 34 49.6666 34H54.3333C54.7015 34 55 33.7015 55 33.3333C55 32.9651 54.7015 32.6667 54.3333 32.6667H49.6666C48.495 32.6667 47.6739 32.2686 47.1453 31.7234C46.609 31.1704 46.3333 30.4247 46.3333 29.6667C46.3333 28.9086 46.609 28.1629 47.1453 27.6099C47.6739 27.0648 48.495 26.6667 49.6667 26.6667H54.7239L52.5286 28.8619C52.2682 29.1223 52.2682 29.5444 52.5286 29.8047C52.7889 30.0651 53.211 30.0651 53.4714 29.8047L56.8047 26.4714C56.9298 26.3464 57 26.1768 57 26C57 25.8232 56.9298 25.6536 56.8047 25.5286L53.4714 22.1953C53.211 21.9349 52.7889 21.9349 52.5286 22.1953C52.2682 22.4556 52.2682 22.8777 52.5286 23.1381L54.7239 25.3333H49.6667C48.1717 25.3333 46.9928 25.8519 46.1881 26.6817C45.391 27.5038 45 28.5914 45 29.6667C45 30.7419 45.391 31.8296 46.1881 32.6516Z" fill="#042049"/>
</g>
</g>
<defs>
<linearGradient id="paint0_linear_123_402" x1="9.46743" y1="38.0021" x2="13.6592" y2="0.825949" gradientUnits="userSpaceOnUse">
<stop stop-color="#0C487A"/>
<stop offset="1" stop-color="#2B6EB2"/>
</linearGradient>
<linearGradient id="paint1_linear_123_402" x1="36" y1="28" x2="66" y2="28" gradientUnits="userSpaceOnUse">
<stop stop-color="#117AE0"/>
<stop offset="1" stop-color="#09449E"/>
</linearGradient>
<clipPath id="clip0_123_402">
<rect width="66" height="45" fill="white"/>
</clipPath>
</defs>
</svg>
